<svg width="62" height="62" viewBox="0 0 62 62" fill="none" xmlns="http://www.w3.org/2000/svg">
<path d="M31 62C48.1208 62 62 48.1208 62 31C62 13.8792 48.1208 0 31 0C13.8792 0 0 13.8792 0 31C0 48.1208 13.8792 62 31 62Z" fill="#CE1567"/>
<path d="M22.9272 43.15H22.9273H40.9742C41.1049 43.15 41.2303 43.0981 41.3227 43.0056L41.2166 42.8996L41.3227 43.0056C41.4151 42.9132 41.4671 42.7879 41.4671 42.6571V37.3563C41.4671 37.2255 41.4151 37.1002 41.3227 37.0077C41.2303 36.9153 41.1049 36.8634 40.9742 36.8634C40.8435 36.8634 40.7181 36.9153 40.6257 37.0077C40.5333 37.1002 40.4813 37.2255 40.4813 37.3563V42.1643H22.9273C22.3733 42.1643 21.8419 41.9445 21.4498 41.5531C21.0577 41.1618 20.8368 40.6309 20.8357 40.077V25.2006C20.8357 25.0699 20.7838 24.9446 20.6914 24.8521C20.5989 24.7597 20.4736 24.7078 20.3429 24.7078C20.2121 24.7078 20.0868 24.7597 19.9944 24.8521L20.1004 24.9582L19.9944 24.8521C19.9019 24.9446 19.85 25.0699 19.85 25.2006L19.85 40.0772L19.85 40.0775C19.8516 40.8927 20.1765 41.6739 20.7534 42.2499C21.3303 42.8259 22.112 43.1496 22.9272 43.15Z" fill="white" stroke="white" stroke-width="0.3"/>
<path d="M40.4817 28.2783H23.2003C23.0696 28.2783 22.9442 28.2264 22.8518 28.134C22.7593 28.0416 22.7074 27.9162 22.7074 27.7855C22.7074 27.6548 22.7593 27.5294 22.8518 27.437C22.9442 27.3446 23.0696 27.2926 23.2003 27.2926H40.9746C41.1053 27.2926 41.2307 27.3446 41.3231 27.437V27.437M40.4817 28.2783L41.3231 27.437L41.2171 27.543L41.3231 27.437M40.4817 28.2783V33.0864C40.4817 33.2171 40.5337 33.3424 40.6261 33.4349C40.7185 33.5273 40.8439 33.5792 40.9746 33.5792C41.1053 33.5792 41.2307 33.5273 41.3231 33.4349C41.4155 33.3424 41.4675 33.2171 41.4675 33.0864V27.7855C41.4675 27.6548 41.4155 27.5294 41.3231 27.437M40.4817 28.2783L41.3231 27.437" fill="white" stroke="white" stroke-width="0.3"/>
<path d="M40.6252 43.0057C40.7176 43.0981 40.843 43.15 40.9737 43.15M40.6252 43.0057C40.6252 43.0057 40.6252 43.0057 40.6252 43.0057L40.9737 43.15M40.6252 43.0057C40.5328 42.9132 40.4809 42.7879 40.4809 42.6572V37.3563C40.4809 37.2256 40.5328 37.1002 40.6252 37.0078C40.7176 36.9154 40.843 36.8634 40.9737 36.8634C41.1044 36.8634 41.2298 36.9154 41.3222 37.0078C41.4146 37.1002 41.4666 37.2256 41.4666 37.3563V42.6572C41.4666 42.7879 41.4146 42.9132 41.3222 43.0057C41.2298 43.0981 41.1044 43.15 40.9737 43.15M40.6252 43.0057L40.9737 43.15" fill="white" stroke="white" stroke-width="0.3"/>
<path d="M40.6252 33.4349C40.7176 33.5273 40.843 33.5792 40.9737 33.5792M40.6252 33.4349C40.6252 33.4349 40.6252 33.4349 40.6252 33.4349L40.9737 33.5792M40.6252 33.4349C40.5328 33.3424 40.4809 33.2171 40.4809 33.0864V27.7855C40.4809 27.6548 40.5328 27.5294 40.6252 27.437C40.7176 27.3446 40.843 27.2926 40.9737 27.2926C41.1044 27.2926 41.2298 27.3446 41.3222 27.437C41.4146 27.5294 41.4666 27.6548 41.4666 27.7855V33.0864C41.4666 33.2171 41.4146 33.3424 41.3222 33.4349C41.2298 33.5273 41.1044 33.5792 40.9737 33.5792M40.6252 33.4349L40.9737 33.5792" fill="white" stroke="white" stroke-width="0.3"/>
<path d="M22.9256 28.2783L22.9256 28.2783C22.1152 28.2695 21.3409 27.9414 20.7709 27.3652C20.2009 26.789 19.8812 26.0113 19.8812 25.2008C19.8812 24.3903 20.2009 23.6126 20.7709 23.0364C21.3409 22.4602 22.1152 22.1321 22.9256 22.1233L22.9272 22.1233V22.1233H27.1255C27.2562 22.1233 27.3816 22.1752 27.474 22.2677L22.9256 28.2783ZM22.9256 28.2783H22.9272M22.9256 28.2783H22.9272M22.9272 28.2783H38.2851M22.9272 28.2783H38.2851M37.7922 23.109V27.2926H22.9282C22.3782 27.2855 21.8531 27.0622 21.4666 26.6708C21.0799 26.2793 20.863 25.7511 20.863 25.2008C20.863 24.6505 21.0799 24.1223 21.4666 23.7307C21.8531 23.3394 22.3782 23.1161 22.9282 23.109H27.1255C27.2562 23.109 27.3816 23.0571 27.474 22.9647L37.7922 23.109ZM37.7922 23.109H34.9834C34.8527 23.109 34.7273 23.0571 34.6349 22.9647C34.5425 22.8722 34.4905 22.7469 34.4905 22.6162C34.4905 22.4855 34.5425 22.3601 34.6349 22.2677C34.7273 22.1752 34.8527 22.1233 34.9834 22.1233H38.2851C38.4158 22.1233 38.5412 22.1752 38.6336 22.2677V22.2677M37.7922 23.109L38.6336 22.2677L38.5275 22.3737L38.6336 22.2677M38.6336 22.2677C38.726 22.3601 38.7779 22.4855 38.7779 22.6162V27.7854C38.7779 27.9161 38.726 28.0415 38.6336 28.1339C38.5412 28.2263 38.4158 28.2783 38.2851 28.2783M38.6336 22.2677L38.2851 28.2783" fill="white" stroke="white" stroke-width="0.3"/>
<path d="M35.8279 33.555L35.7173 33.4536C35.4689 33.7247 35.2807 34.0453 35.165 34.3942C35.0493 34.7432 35.0088 35.1128 35.0461 35.4785L35.046 35.4785L35.0464 35.4816C35.1275 36.1403 35.4486 36.746 35.9483 37.1827C36.4478 37.6192 37.0906 37.8563 37.7539 37.8487H41.5395H41.5397C41.8889 37.8483 42.2238 37.7095 42.4709 37.4627C42.7181 37.216 42.8574 36.8813 42.8583 36.532V36.5316V33.9143C42.8583 33.9143 42.8583 33.9143 42.8583 33.9143C42.8584 33.5644 42.7195 33.2287 42.4723 32.9811C42.225 32.7335 41.8896 32.5942 41.5397 32.5938H41.5395H37.6628H37.6628C37.2964 32.5939 36.9342 32.6704 36.5991 32.8186C36.264 32.9667 35.9636 33.1831 35.7169 33.454L35.8279 33.555ZM35.8279 33.555C36.0604 33.2995 36.3438 33.0954 36.6597 32.9558C36.9757 32.8161 37.3174 32.7439 37.6628 32.7438L37.753 37.6987C37.1263 37.7061 36.5189 37.4822 36.047 37.0697C35.5751 36.6573 35.2719 36.0853 35.1953 35.4633C35.1601 35.1186 35.1983 34.7703 35.3074 34.4414C35.4164 34.1125 35.5938 33.8104 35.8279 33.555ZM37.7554 36.863V36.863L37.7526 36.863C37.3331 36.8709 36.9253 36.7239 36.6073 36.4501C36.2899 36.1769 36.0841 35.7965 36.029 35.3813C36.0068 35.154 36.0322 34.9244 36.1038 34.7074C36.1756 34.4897 36.2922 34.2894 36.4461 34.1194C36.5999 33.9495 36.7877 33.8136 36.9973 33.7206C37.2068 33.6276 37.4335 33.5796 37.6628 33.5795C37.6628 33.5795 37.6628 33.5795 37.6628 33.5795C37.6628 33.5795 37.6628 33.5795 37.6629 33.5795L41.5394 33.5812C41.5394 33.5812 41.5394 33.5812 41.5394 33.5812C41.6278 33.5813 41.7125 33.6164 41.7749 33.6789C41.8374 33.7413 41.8725 33.826 41.8726 33.9144V36.5298C41.8725 36.6182 41.8374 36.7029 41.7749 36.7654C41.7124 36.8278 41.6277 36.863 41.5394 36.863H37.7554Z" fill="white" stroke="white" stroke-width="0.3"/>
<path d="M37.9885 36.2514C38.5574 36.2514 39.0186 35.7902 39.0186 35.2213C39.0186 34.6524 38.5574 34.1912 37.9885 34.1912C37.4196 34.1912 36.9584 34.6524 36.9584 35.2213C36.9584 35.7902 37.4196 36.2514 37.9885 36.2514Z" fill="white" stroke="white" stroke-width="0.3"/>
<path d="M34.1108 28.2759C34.1922 28.276 34.2723 28.2559 34.344 28.2174C34.4158 28.179 34.4768 28.1234 34.5218 28.0556L34.5219 28.0555L36.6847 24.7926L36.5599 24.7093L36.685 24.7922L36.6849 24.7923C36.8839 24.494 36.9567 24.129 36.8872 23.7773C36.8177 23.4253 36.6115 23.1153 36.3138 22.9152L36.3137 22.915L30.5942 19.0795C30.4466 18.9805 30.2809 18.9115 30.1066 18.8765C29.9323 18.8415 29.7528 18.8412 29.5784 18.8755C29.404 18.9099 29.238 18.9783 29.0901 19.0768C28.9421 19.1753 28.815 19.3021 28.716 19.4497L23.3037 27.5084L23.3036 27.5085C23.2539 27.5827 23.2253 27.669 23.2207 27.7582C23.2162 27.8473 23.236 27.9361 23.2781 28.0149L23.4102 27.9444L23.2781 28.0149C23.3201 28.0937 23.3827 28.1596 23.4592 28.2056C23.5358 28.2515 23.6234 28.2758 23.7127 28.2759H23.7128H34.1108ZM34.1108 28.2759L34.1109 28.1259V28.2759H34.1108ZM24.6374 27.2902L29.5332 19.9988L29.5332 19.9988C29.5602 19.9585 29.5949 19.924 29.6352 19.8972C29.6755 19.8704 29.7207 19.8517 29.7683 19.8424C29.8158 19.833 29.8647 19.8332 29.9122 19.8427C29.9597 19.8523 30.0048 19.8711 30.045 19.8981L30.0451 19.8982L35.7642 23.7336C35.8044 23.7606 35.8389 23.7953 35.8657 23.8356L35.9906 23.7526L35.8657 23.8356C35.8925 23.876 35.9111 23.9212 35.9204 23.9687C35.9297 24.0163 35.9296 24.0651 35.92 24.1126C35.9105 24.1601 35.8916 24.2052 35.8646 24.2454L35.8641 24.2462L33.8463 27.2902H24.6374Z" fill="white" stroke="white" stroke-width="0.3"/>
<path d="M23.7128 28.2759H23.7127C23.6234 28.2758 23.5358 28.2515 23.4593 28.2055C23.3827 28.1596 23.3201 28.0937 23.2781 28.0148L23.4102 27.9444L23.2781 28.0148C23.236 27.936 23.2162 27.8473 23.2207 27.7581C23.2253 27.6689 23.2539 27.5826 23.3037 27.5085L23.3037 27.5084L27.7725 20.857C27.7725 20.857 27.7725 20.857 27.7725 20.857C27.8453 20.7485 27.9583 20.6735 28.0864 20.6482C28.2146 20.623 28.3476 20.6497 28.4561 20.7224C28.6657 20.8616 28.9017 20.9559 29.1495 20.9995C29.3975 21.0431 29.6518 21.035 29.8965 20.9756L29.8974 20.9753C30.4272 20.8503 30.8892 20.5275 31.1887 20.073L31.1896 20.0715L31.1896 20.0715C31.2627 19.9633 31.3757 19.8885 31.5039 19.8636C31.632 19.8387 31.7647 19.8655 31.873 19.9383C31.8731 19.9384 31.8731 19.9384 31.8732 19.9385L35.034 22.0581L23.7128 28.2759ZM23.7128 28.2759H34.1109M23.7128 28.2759H34.1109M35.1668 22.7458L35.1668 22.7457C34.8593 23.1746 34.7341 23.7077 34.8187 24.2286C34.9031 24.7487 35.1898 25.2142 35.616 25.5238C35.7229 25.5963 35.797 25.708 35.8224 25.8347C35.848 25.9624 35.822 26.0951 35.75 26.2037L35.75 26.2038L34.5219 28.0551L35.1668 22.7458ZM35.1668 22.7458L35.1695 22.7417M35.1668 22.7458L35.1695 22.7417M35.1695 22.7417C35.2422 22.6331 35.2687 22.5001 35.2433 22.3719C35.2179 22.2437 35.1427 22.1309 35.0341 22.0582L35.1695 22.7417ZM34.1109 28.2759C34.1109 28.2759 34.1109 28.2759 34.1109 28.2759C34.1923 28.2759 34.2725 28.2557 34.3442 28.2172C34.4159 28.1787 34.4769 28.123 34.5219 28.0552L34.1109 28.2759ZM34.6827 26.0282L33.8463 27.2901H24.6378L28.3407 21.7788C28.8998 22.022 29.5241 22.0778 30.1195 21.9359C30.7297 21.7942 31.2814 21.4709 31.7027 21.0101L34.106 22.6213C33.8382 23.1766 33.7484 23.8024 33.8508 24.4126C33.9537 25.0255 34.245 25.5899 34.6827 26.0282Z" fill="white" stroke="white" stroke-width="0.3"/>
<path d="M27.464 28.0379L27.464 28.0379C27.2453 27.6672 27.1285 27.2452 27.1255 26.8148C27.1224 26.3844 27.2332 25.9608 27.4467 25.5871C27.6601 25.2133 27.9686 24.9026 28.3409 24.6865C28.7131 24.4704 29.1359 24.3566 29.5664 24.3566C29.9968 24.3566 30.4196 24.4704 30.7918 24.6865C31.1641 24.9026 31.4726 25.2133 31.686 25.5871C31.8995 25.9608 32.0103 26.3844 32.0073 26.8148C32.0042 27.2452 31.8874 27.6672 31.6687 28.0379L31.6682 28.0388C31.6243 28.112 31.5622 28.1726 31.4879 28.2146C31.4136 28.2565 31.3298 28.2785 31.2445 28.2783M27.464 28.0379L27.5932 27.9617C27.6237 28.0126 27.6669 28.0547 27.7185 28.0839C27.7701 28.1131 27.8284 28.1284 27.8877 28.1283V28.2783M27.464 28.0379L27.4645 28.0388C27.5084 28.1119 27.5704 28.1725 27.6446 28.2144C27.7188 28.2564 27.8025 28.2784 27.8877 28.2783M27.464 28.0379L27.8877 28.2783M31.2445 28.2783L27.8879 28.2783L27.8877 28.2783M31.2445 28.2783C31.2445 28.2783 31.2444 28.2783 31.2443 28.2783L31.2446 28.1283V28.2783H31.2445ZM28.3555 25.9894L28.3555 25.9894L28.3562 25.9884C28.5587 25.6864 28.8669 25.4711 29.2202 25.3849C29.5734 25.2987 29.9462 25.3479 30.265 25.5227C30.5839 25.6975 30.8257 25.9853 30.943 26.3295C31.0499 26.6431 31.0463 26.9828 30.9346 27.2926H28.1955C28.122 27.0939 28.0934 26.881 28.1123 26.6692C28.1339 26.4256 28.2177 26.1915 28.3555 25.9894Z" fill="white" stroke="white" stroke-width="0.3"/>
</svg>
