<svg width="62" height="62" viewBox="0 0 62 62" fill="none" xmlns="http://www.w3.org/2000/svg">
<path d="M31 62C48.1208 62 62 48.1208 62 31C62 13.8792 48.1208 0 31 0C13.8792 0 0 13.8792 0 31C0 48.1208 13.8792 62 31 62Z" fill="#CE1567"/>
<path d="M16.2731 45.725C16.0982 45.5489 16 45.3107 16 45.0625C16 44.8142 16.0982 44.5761 16.2731 44.4L20.0351 40.64V28.993C20.0346 28.8697 20.0586 28.7475 20.1056 28.6335C20.1526 28.5195 20.2218 28.416 20.3091 28.329L29.8761 18.765C31.6504 17.0077 34.0483 16.0244 36.5455 16.0303C39.0427 16.0362 41.4359 17.0306 43.2019 18.7962C44.9679 20.5618 45.9629 22.9548 45.9693 25.452C45.9757 27.9492 44.993 30.3473 43.2361 32.122L33.6811 41.7C33.5948 41.7875 33.4919 41.8569 33.3784 41.9042C33.2649 41.9514 33.1431 41.9754 33.0201 41.975H21.3541L17.6001 45.725C17.4237 45.9009 17.1848 45.9997 16.9356 45.9997C16.6865 45.9997 16.4475 45.9009 16.2711 45.725H16.2731ZM32.6311 40.1L36.3831 36.335H26.9931L23.2281 40.1H32.6311ZM31.2001 20.089L21.9111 29.382V38.762L35.9651 24.711C36.1416 24.5391 36.3787 24.4437 36.6251 24.4453C36.8714 24.447 37.1072 24.5456 37.2814 24.7197C37.4555 24.8939 37.5541 25.1297 37.5558 25.376C37.5574 25.6224 37.462 25.8595 37.2901 26.036L28.8651 34.46H38.2531L41.9071 30.8C43.3275 29.3801 44.1257 27.4542 44.1261 25.4459C44.1264 23.4375 43.329 21.5113 41.9091 20.091C40.4893 18.6706 38.5634 17.8724 36.5551 17.872C34.5467 17.8717 32.6205 18.6691 31.2001 20.089Z" fill="white"/>
</svg>
