<svg width="62" height="62" viewBox="0 0 62 62" fill="none" xmlns="http://www.w3.org/2000/svg">
<path d="M31 62C48.1208 62 62 48.1208 62 31C62 13.8792 48.1208 0 31 0C13.8792 0 0 13.8792 0 31C0 48.1208 13.8792 62 31 62Z" fill="#CE1567"/>
<path d="M35.0606 42.0239V39.4819C35.0582 38.471 34.6567 37.5021 33.9414 36.7877C33.2262 36.0732 32.2551 35.6712 31.2442 35.6699H22.3516C21.8498 35.6683 21.3522 35.7665 20.8887 35.9587C20.4252 36.151 20.0057 36.4336 19.6524 36.7899C19.2981 37.1429 19.0175 37.5625 18.8262 38.0245C18.6348 38.4865 18.5362 38.9818 18.5371 39.4819V42.0239C18.5371 42.1907 18.5033 42.3557 18.4395 42.5098C18.3756 42.6638 18.282 42.8038 18.1641 42.9216C18.0461 43.0395 17.908 43.1329 17.7539 43.1966C17.5998 43.2603 17.4343 43.293 17.2676 43.2929C17.1006 43.2933 16.9356 43.2608 16.7813 43.1972C16.6269 43.1336 16.4854 43.0402 16.3672 42.9224C16.249 42.8045 16.1559 42.6645 16.0918 42.5103C16.0277 42.3562 15.9943 42.1909 15.9941 42.0239V39.4819C15.9927 38.6473 16.1568 37.8206 16.4766 37.0496C16.7963 36.2786 17.2657 35.5786 17.8574 34.9899C18.4458 34.3988 19.1453 33.9301 19.916 33.6112C20.6867 33.2923 21.5136 33.1294 22.3477 33.132H31.2402C32.9245 33.133 34.5391 33.8022 35.7305 34.9927C36.9219 36.1832 37.5933 37.7977 37.5957 39.4819V42.0239C37.5957 42.1907 37.5619 42.3557 37.4981 42.5098C37.4342 42.6638 37.3406 42.8038 37.2227 42.9216C37.1047 43.0395 36.9646 43.1329 36.8106 43.1966C36.6565 43.2603 36.491 43.293 36.3242 43.2929C35.9885 43.2916 35.6686 43.1573 35.4317 42.9195C35.1947 42.6817 35.0606 42.3596 35.0606 42.0239ZM38.752 32.9949L36.209 30.4529C36.09 30.3352 35.9961 30.195 35.9317 30.0405C35.8672 29.886 35.834 29.7203 35.834 29.5529C35.834 29.3855 35.8672 29.2198 35.9317 29.0653C35.9961 28.9108 36.09 28.7707 36.209 28.653C36.3269 28.5342 36.4666 28.4399 36.6211 28.3755C36.7756 28.3112 36.9421 28.2781 37.1094 28.2781C37.2767 28.2781 37.4412 28.3112 37.5957 28.3755C37.7502 28.4399 37.8919 28.5342 38.0098 28.653L39.6524 30.2949L43.8359 26.1099C43.9538 25.9912 44.0936 25.8969 44.2481 25.8326C44.4025 25.7683 44.569 25.7352 44.7363 25.7352C44.9037 25.7352 45.0682 25.7683 45.2227 25.8326C45.3771 25.8969 45.5189 25.9912 45.6367 26.1099C45.7553 26.2279 45.8479 26.3682 45.9121 26.5226C45.9763 26.6771 46.0098 26.8427 46.0098 27.0099C46.0098 27.1772 45.9763 27.3428 45.9121 27.4973C45.8479 27.6517 45.7553 27.7919 45.6367 27.9099L40.5547 32.9949C40.3148 33.2313 39.9911 33.3639 39.6543 33.364C39.4871 33.365 39.3208 33.3329 39.166 33.2695C39.0112 33.2062 38.8705 33.1129 38.752 32.9949ZM20.4512 24.6459C20.4536 22.9618 21.1252 21.3475 22.3164 20.157C23.5076 18.9666 25.1226 18.2972 26.8067 18.2959C28.4901 18.298 30.1026 18.9677 31.293 20.1581C32.4834 21.3485 33.1541 22.9625 33.1563 24.6459C33.1549 26.33 32.4854 27.9448 31.2949 29.136C30.1045 30.3272 28.4907 30.9976 26.8067 30.9999C25.1214 30.9991 23.5044 30.3295 22.3125 29.1382C21.1206 27.9468 20.4508 26.3312 20.4492 24.6459H20.4512ZM22.9883 24.6459C22.9899 25.6571 23.394 26.6264 24.1094 27.3411C24.8248 28.0557 25.7935 28.4574 26.8047 28.4579C27.8148 28.4566 28.7842 28.0544 29.4981 27.3397C30.2119 26.6249 30.6113 25.6561 30.6113 24.6459C30.6105 23.636 30.2097 22.6676 29.4961 21.9531C28.7825 21.2385 27.8146 20.836 26.8047 20.8339C25.7932 20.8345 24.8233 21.236 24.1074 21.9506C23.3915 22.6652 22.9887 23.6344 22.9863 24.6459H22.9883Z" fill="white"/>
</svg>
