<svg width="118" height="96" viewBox="0 0 118 96" fill="none" xmlns="http://www.w3.org/2000/svg">
<circle cx="48" cy="48" r="48" fill="#CE1567" fill-opacity="0.2"/>
<path d="M96.5855 44.233L96.7509 43.911L96.6719 43.5576C96.3015 41.9027 95.6459 38.4582 95.7039 35.1575C95.7328 33.5057 95.9402 31.9514 96.4117 30.6949C96.8797 29.4481 97.5772 28.5673 98.556 28.1038C99.857 27.4888 101.842 27.5258 104.147 28.1185C106.409 28.7001 108.788 29.7683 110.74 30.9637C111.85 31.6467 113.305 32.663 114.484 33.8936C115.679 35.1415 116.467 36.482 116.504 37.8202L116.504 37.821C116.536 38.8947 116.096 39.9744 115.26 41.0554C114.423 42.1381 113.235 43.158 111.901 44.0793C109.236 45.9215 106.158 47.2566 104.654 47.8549L104.324 47.9861L104.151 48.2959L94.3272 65.8639L94.0582 66.345L94.3213 66.8294C96.3697 70.5996 96.173 75.3461 95.9133 80.6538C95.8174 82.4914 95.72 84.4352 95.72 86.4C95.72 86.7277 95.4477 87 95.12 87H40.464C40.1363 87 39.864 86.7277 39.864 86.4C39.864 84.4351 39.7666 82.4913 39.6707 80.6535C39.3124 73.3229 39.0644 67.0516 44.6315 63.0521L45.048 62.7529V62.24V31.744C45.048 19.2074 55.2412 9 67.776 9C80.3115 9 90.5207 19.2083 90.536 31.7452V51.872L92.4255 52.329L96.5855 44.233ZM87.9067 61.3817L89.304 61.9867V60.464V31.744C89.304 19.8647 79.6573 10.2 67.776 10.2C55.9112 10.2 46.248 19.8642 46.248 31.744V60.464V61.9867L47.6453 61.3817C49.1362 60.7361 50.8481 60.1646 52.91 59.7306L52.916 59.7293C56.7274 58.9023 59.5622 55.7735 60.0637 51.9046L60.1289 51.4017L59.7617 51.0519C56.2729 47.7286 53.928 42.2751 53.928 36.048V35.9132C53.9486 35.6012 54.2002 35.3567 54.4535 35.3308L54.4573 35.3304C62.73 34.4543 69.8536 28.7194 73.6039 20.1614L73.6039 20.1614L73.6071 20.1539C73.6742 19.9974 73.8262 19.8627 74.0099 19.812C74.1661 19.7689 74.349 19.7951 74.5139 19.9114C78.8267 23.1402 81.608 29.2861 81.608 36.048C81.608 42.277 79.2778 47.7298 75.7903 51.0519L75.4226 51.4022L75.4884 51.9057C75.9895 55.7352 78.819 58.9191 82.6404 59.7302L82.642 59.7306C84.7039 60.1646 86.4158 60.7361 87.9067 61.3817ZM78.5895 72.0811L78.8561 71.3364L78.1929 70.9055L74.7269 68.6534C74.5554 68.5372 74.4455 68.3361 74.4396 68.1461C74.4344 67.964 74.5242 67.7773 74.7007 67.6518C74.7016 67.6511 74.7026 67.6505 74.7035 67.6498L79.4646 64.3586L80.0356 63.9639L79.8655 63.291L79.1295 60.379L78.7961 59.0597L77.6366 59.7719C74.645 61.6094 71.2907 62.52 67.92 62.52C64.4754 62.52 61.0138 61.5488 57.9761 59.6198L56.812 58.8807L56.4711 60.2167L55.6871 63.2887L55.515 63.9629L56.0874 64.3586L60.8485 67.6498C60.8493 67.6504 60.8502 67.651 60.851 67.6516C61.0018 67.759 61.1069 67.9526 61.1118 68.1608C61.1009 68.3629 60.9942 68.5446 60.8352 68.6468L60.8312 68.6495L57.3591 70.9055L56.6959 71.3364L56.9625 72.0811C57.8503 74.5602 60.5877 80.6247 67.2002 85.2816L67.776 85.6871L68.3518 85.2816C74.9643 80.6247 77.7017 74.5602 78.5895 72.0811ZM55.9913 36.3263L55.1138 36.4765L55.1614 37.3655C55.3949 41.7268 56.8258 45.6789 59.0454 48.5638C61.2649 51.4485 64.3255 53.32 67.776 53.32C71.3984 53.32 74.5842 51.2639 76.8252 48.1319C79.0677 44.998 80.424 40.7211 80.424 36.048C80.424 30.6573 78.5808 25.5737 75.4063 22.2963L74.4397 21.2984L73.8002 22.5317C69.8932 30.0666 63.4037 35.0578 55.9913 36.3263ZM74.6557 53.6229L74.2999 52.4085L73.2007 53.0353C71.5142 53.9969 69.6836 54.52 67.776 54.52C65.8689 54.52 64.0533 53.9971 62.3808 53.0499L61.2786 52.4256L60.9272 53.6427C60.5175 55.062 59.8314 56.3451 58.9143 57.4368L58.1513 58.3451L59.1756 58.9435C64.5239 62.0676 71.0952 62.101 76.4757 59.0628L77.5348 58.4647L76.7433 57.5412C75.7873 56.426 75.0833 55.0829 74.6557 53.6229ZM53.1799 60.9074L53.1799 60.9074L53.1686 60.9097C46.8587 62.2472 43.4988 64.6206 41.9169 68.1622C41.1469 69.8861 40.8356 71.8102 40.7379 73.8714C40.6409 75.9164 40.7526 78.1656 40.8713 80.5539L40.8731 80.5905C40.8731 80.591 40.8731 80.5915 40.8732 80.592C40.9371 81.9677 41.0005 83.38 41.0322 84.8377L41.0535 85.816H42.032H63.088H65.7021L63.7554 84.0713C57.1835 78.1814 55.4928 71.4434 55.4368 71.2084L55.4355 71.203C55.3765 70.9609 55.4762 70.7076 55.6904 70.5707L55.6955 70.5674L58.1915 68.9514L59.4435 68.1408L58.2181 67.2904L54.5127 64.719C54.5118 64.7184 54.5109 64.7178 54.51 64.7171C54.3035 64.5696 54.2077 64.3038 54.2656 64.0685C54.2658 64.0679 54.266 64.0672 54.2661 64.0665L54.7928 62.0078L55.1963 60.4306L53.6071 60.7838C53.4903 60.8097 53.378 60.8465 53.3154 60.8669C53.3089 60.8691 53.3029 60.871 53.2975 60.8728C53.2226 60.8971 53.1965 60.9041 53.1799 60.9074ZM93.6511 68.1622C92.0732 64.6295 88.7262 62.2592 82.447 60.9199C82.416 60.9094 82.3822 60.8964 82.3076 60.8694C82.2226 60.8387 82.0946 60.7943 81.9401 60.7634L80.3812 60.4516L80.7752 61.9918L81.3015 64.0492C81.3614 64.3021 81.2647 64.5538 81.0577 64.7014C81.0569 64.7019 81.0561 64.7025 81.0553 64.703L77.3499 67.2745L76.1245 68.1248L77.3765 68.9354L79.8725 70.5514L79.8776 70.5547C80.0918 70.6916 80.1915 70.9449 80.1325 71.187L80.1306 71.1947L80.1289 71.2024C80.0744 71.442 78.3858 78.1797 71.8136 84.0544L69.8607 85.8H72.48H93.52H94.4983L94.5198 84.822C94.5445 83.6954 94.5982 82.5912 94.6514 81.4988C94.6661 81.1956 94.6808 80.8933 94.6949 80.5916C94.6949 80.5912 94.6949 80.5909 94.6949 80.5905L94.6968 80.5538C94.8154 78.1655 94.9271 75.9164 94.8301 73.8714C94.7324 71.8102 94.4211 69.8861 93.6511 68.1622ZM92.3649 64.2591L93.3004 65.1947L93.9452 64.0393L102.553 48.6153L103.048 47.7295L102.155 47.2479L98.5068 45.2799L97.6093 44.7957L97.1428 45.7025L90.6148 58.3905L90.504 58.6058V58.848V62.224V62.7435L90.9291 63.0422C91.4658 63.4193 91.934 63.8282 92.3649 64.2591ZM103.529 46.6104L103.942 46.8306L104.376 46.6546C106.637 45.737 109.299 44.3754 111.405 42.9013C112.456 42.166 113.406 41.3772 114.099 40.5743C114.768 39.7994 115.329 38.861 115.304 37.8468L115.304 37.8422C115.277 36.9444 114.702 35.9556 113.887 35.0339C113.034 34.068 111.78 33.0196 110.108 31.9961C108.127 30.773 105.956 29.8376 104.031 29.3132C103.068 29.0509 102.144 28.8851 101.321 28.8454C100.517 28.8067 99.7142 28.883 99.0606 29.1919L99.0599 29.1923C98.1266 29.6344 97.6391 30.6133 97.3668 31.5494C97.0811 32.5315 96.953 33.7373 96.9282 35.0105C96.8784 37.5662 97.242 40.601 97.7906 43.1393L97.8879 43.5894L98.2932 43.8081L99.5092 44.4641L100.39 44.9395L100.865 44.0577L102.913 40.2497L102.915 40.2447C103.069 39.9548 103.421 39.8429 103.723 40.0033C104.013 40.1569 104.125 40.5074 103.966 40.8094C103.965 40.8101 103.965 40.8107 103.965 40.8113L101.919 44.6143L101.444 45.4981L102.329 45.9704L103.529 46.6104Z" stroke="#CE1567" stroke-width="2"/>
</svg>
