<svg width="119" height="96" viewBox="0 0 119 96" fill="none" xmlns="http://www.w3.org/2000/svg">
<circle cx="48.5" cy="48" r="48" fill="#CE1567" fill-opacity="0.2"/>
<path d="M118.53 74.7505C117.75 66.6366 108.787 59.8489 101.038 63.9666L98.4011 55.39L104.661 30.562C106.26 24.1035 104.661 15.9986 99.9289 6.46077C98.7007 3.6543 94.3605 4.0904 93.6158 7.03037L88.5043 23.5369L83.4194 7.12234C82.6926 4.1527 78.3049 3.79967 77.1004 6.60317C72.3775 16.138 70.7903 24.237 72.3834 30.6895L78.6134 55.4108L75.9434 64.0734C62.6824 57.8968 53.2603 76.391 61.1279 86.4718C66.7408 94.8971 79.2661 92.5564 82.3929 83.2114C82.4968 83.4339 86.8815 68.826 87.0298 68.5056L89.7532 67.7254L94.2477 82.3095C95.1941 85.0952 96.7605 87.522 99.0864 89.3287C108.989 96.8076 120.719 85.5699 118.53 74.7505ZM76.6999 29.6067C75.4954 24.7147 76.5961 18.4402 79.9632 10.9671L86.1932 31.0485L81.1736 47.2465L76.6999 29.6067ZM84.6506 64.554C83.9297 64.7617 83.3601 65.3194 83.1376 66.0374L78.557 80.7965C76.78 87.3677 68.9272 89.7826 64.7502 83.87C61.4453 79.2123 62.1543 71.9529 66.9514 68.5768C68.9035 67.2092 71.4222 66.9541 73.6086 67.9004C75.3026 68.6065 77.0351 71.0303 78.824 69.0841C79.0436 68.8438 79.2067 68.5561 79.3017 68.2446L97.0898 10.8544C100.46 18.3393 101.54 24.599 100.353 29.4821L92.0465 62.4447L84.6506 64.554ZM112.264 83.7662V83.7602C108.461 89.391 100.57 87.6436 98.6592 81.3572L94.0371 66.4675C95.2416 66.0255 96.0782 64.9486 96.3125 63.6996L97.6802 68.1348C98.0391 69.3096 99.2851 69.9712 100.46 69.6092C101.531 69.1702 102.279 68.1615 103.403 67.7818C112.377 64.4176 117.242 77.5006 112.264 83.7662Z" fill="#CE1567"/>
<path d="M60.1459 58.4902C62.9405 58.858 63.6376 54.6365 60.8579 54.0995C55.9391 53.0256 40.9071 53.6011 43.7847 65.8475L47.763 85.9941C47.9143 86.6587 47.3863 87.3143 46.7039 87.3113H41.6606C38.3409 87.3024 35.6531 84.6087 35.6531 81.289V16.7343C35.659 12.2932 39.2576 8.69763 43.6987 8.6917H60.5019C61.7301 8.6917 62.7269 7.6949 62.7269 6.4667C62.7269 5.2385 61.7301 4.2417 60.5019 4.2417H43.6987C36.8012 4.2506 31.212 9.83683 31.2061 16.7343V81.289C31.212 87.0681 35.8934 91.7495 41.6725 91.7584H46.7158C50.1809 91.791 52.8687 88.4624 52.1211 85.0834L48.1457 64.9367C46.2589 57.0988 56.577 58.1609 60.1459 58.4902Z" fill="#CE1567"/>
<path d="M60.5019 14.1473H42.2688C39.3644 14.1592 39.3555 18.5855 42.2688 18.5973H60.5019C63.4033 18.5855 63.4152 14.1592 60.5019 14.1473Z" fill="#CE1567"/>
<path d="M60.5019 24.056H42.2688C39.3644 24.0679 39.3555 28.4942 42.2688 28.506H60.5019C63.4033 28.4942 63.4152 24.0679 60.5019 24.056Z" fill="#CE1567"/>
<path d="M60.5019 33.9647H42.2688C39.3644 33.9766 39.3555 38.4029 42.2688 38.4147H60.5019C63.4033 38.4029 63.4152 33.9766 60.5019 33.9647Z" fill="#CE1567"/>
<path d="M42.2688 43.8705C39.3644 43.8824 39.3555 48.3086 42.2688 48.3205H60.5019C63.4063 48.3086 63.4152 43.8824 60.5019 43.8705H42.2688Z" fill="#CE1567"/>
<path d="M88.5042 53.1205C85.2498 53.1353 85.2498 58.0837 88.5042 58.0985C91.7587 58.0837 91.7587 53.1353 88.5042 53.1205Z" fill="#CE1567"/>
</svg>
