<svg width="124" height="96" viewBox="0 0 124 96" fill="none" xmlns="http://www.w3.org/2000/svg">
<circle cx="48" cy="48" r="48" fill="#CE1567" fill-opacity="0.2"/>
<path d="M104.275 93.53H51.7566C47.6189 93.53 44.254 90.1651 44.254 86.0273V52.2654H36.7513C34.6468 52.2654 33 50.6186 33 48.5141C33 47.52 33.4051 46.5446 34.1104 45.8394L76.703 4.03456C77.4307 3.32181 78.5974 3.32181 79.3326 4.03456L93.0212 17.4831V9.12512C93.0212 8.08975 93.8615 7.24945 94.8969 7.24945H109.902C110.938 7.24945 111.778 8.08975 111.778 9.12512V35.8721L121.91 45.8244C122.627 46.5446 123.032 47.52 123.032 48.5141C123.032 50.6186 121.385 52.2654 119.281 52.2654H111.778V86.0273C111.778 90.1651 108.413 93.53 104.275 93.53ZM78.0159 8.00347L36.7513 48.5028L46.1296 48.5141C47.165 48.5141 48.0053 49.3544 48.0053 50.3897V86.0273C48.0053 88.0943 49.6897 89.7787 51.7566 89.7787H104.275C106.342 89.7787 108.027 88.0943 108.027 86.0273V50.3897C108.027 49.3544 108.867 48.5141 109.902 48.5141H119.281C119.281 48.5066 119.269 48.4916 119.269 48.4916L108.589 37.9991C108.229 37.6465 108.027 37.1625 108.027 36.6599V11.0008H96.7726V21.9547C96.7726 22.7124 96.3187 23.3914 95.6209 23.684C94.9307 23.9804 94.1241 23.8228 93.5802 23.2939L78.0159 8.00347Z" fill="#CE1567"/>
<path d="M89.2699 78.5247C88.0845 78.5247 87.0041 77.992 86.3063 77.0617L74.0732 61.8013L76.9993 59.4567L89.2661 74.7621L96.7575 67.2557L81.4559 55.0001L83.8004 52.0741L99.1059 64.3409C99.9912 65.0049 100.524 66.0853 100.524 67.2707C100.524 68.2536 100.13 69.1877 99.4172 69.9079L91.9108 77.4143C91.1868 78.1308 90.2527 78.5247 89.2699 78.5247Z" fill="#CE1567"/>
<path d="M70.5132 63.5194C62.2378 63.5194 55.5079 56.7895 55.5079 48.5141C55.5079 48.1652 55.5117 47.8126 55.5642 47.4675C55.6392 46.931 55.9431 46.4509 56.397 46.1545C56.8547 45.8544 57.4099 45.7756 57.935 45.9219L66.218 48.2815L70.2844 44.2151L67.9211 35.9359C67.771 35.4145 67.8573 34.8518 68.1537 34.3979C68.45 33.9439 68.9302 33.6401 69.4666 33.5651C69.8117 33.5125 70.1644 33.5088 70.5132 33.5088C78.7887 33.5088 85.5186 40.2387 85.5186 48.5141C85.5186 56.7895 78.7887 63.5194 70.5132 63.5194ZM59.3906 50.2397C60.2234 55.6266 64.8938 59.7681 70.5132 59.7681C76.7179 59.7681 81.7672 54.7188 81.7672 48.5141C81.7672 42.8946 77.6258 38.2242 72.2389 37.3914L74.1933 44.2488C74.3809 44.9053 74.1971 45.6068 73.7169 46.0907L68.0899 51.7177C67.6097 52.1979 66.9045 52.3817 66.248 52.1942L59.3906 50.2397Z" fill="#CE1567"/>
</svg>
