<svg width="124" height="96" viewBox="0 0 124 96" fill="none" xmlns="http://www.w3.org/2000/svg">
<circle cx="48" cy="48" r="48" fill="#CE1567" fill-opacity="0.2"/>
<mask id="path-2-outside-1_984_12" maskUnits="userSpaceOnUse" x="29" y="0.5" width="95" height="95" fill="black">
<rect fill="white" x="29" y="0.5" width="95" height="95"/>
<path d="M112.196 15.7838C111.468 11.1845 108.331 7.7148 104.582 7.7148C100.668 7.7148 97.4343 11.4999 96.8982 16.4007C91.0636 20.2246 87.5893 27.9331 86.5747 34.7513C84.9665 45.5969 87.4106 57.7478 82.8191 63.3897C80.8672 57.8459 78.2622 52.5542 75.0593 47.6262C75.0593 37.242 74.4673 34.2727 79.7068 25.7282C80.6226 24.2573 80.619 22.3927 79.6975 20.9254C78.1188 18.4641 78.0597 14.2439 78.0395 12.8455C78.0238 11.6345 77.5346 10.4778 76.6768 9.62289L74.4455 7.40403C74.8473 6.08942 74.3349 4.66725 73.1869 3.91104L70.2595 2.01538C69.5366 1.53738 68.6468 1.38301 67.8051 1.58953C66.9634 1.79606 66.2461 2.34471 65.8265 3.10306L62.68 8.74653C62.0749 9.8328 62.1809 11.1761 62.9488 12.1541C60.7759 13.5369 57.999 13.5369 55.8261 12.1541C56.5961 11.1724 56.7003 9.82399 56.0903 8.73565L52.9515 3.10461C52.532 2.34536 51.8141 1.79603 50.9716 1.58946C50.1291 1.38289 49.2386 1.53787 48.5154 2.01694L45.5631 3.92037C44.4244 4.67631 43.9186 6.09129 44.3201 7.39782L42.0981 9.62599C41.2408 10.4787 40.7516 11.6333 40.7354 12.8424C40.7152 14.2315 40.6546 18.4579 39.0759 20.9223C38.158 22.3916 38.158 24.2558 39.0759 25.7251C39.2391 25.9986 39.4349 26.3063 39.6524 26.6481C44.5951 34.425 43.9829 37.9444 43.9829 47.6153C42.0624 50.3609 32.0185 65.795 30.0094 90.9996C29.9221 92.1223 30.449 93.2045 31.3867 93.8281C32.3245 94.4518 33.5262 94.5193 34.5279 94.0046C35.2505 93.4712 36.1236 93.1807 37.0218 93.1749C39.0806 93.1749 39.5157 94.7287 42.6233 94.7287C45.776 94.7287 46.0852 93.1749 48.2171 93.1749C50.324 93.1749 50.669 94.7287 53.8108 94.7287C56.9526 94.7287 57.2696 93.1749 59.4046 93.1749C60.129 93.1517 60.8426 93.3548 61.4463 93.756C62.5099 94.4149 63.7412 94.7526 64.9921 94.7287C68.1448 94.7287 68.454 93.1749 70.5858 93.1749C71.3102 93.152 72.0238 93.3551 72.6276 93.756C73.6926 94.4157 74.9255 94.7535 76.178 94.7287C79.3354 94.7287 79.6275 93.1749 81.7718 93.1749C82.6612 93.1782 83.5266 93.4633 84.2439 93.9891C85.2456 94.5066 86.449 94.441 87.3884 93.8177C88.3279 93.1944 88.8561 92.1112 88.7687 90.9871C88.1288 82.7242 86.514 74.5659 83.958 66.6823C91.1413 60.4235 87.9296 46.8043 89.6481 35.2128C90.3365 30.5886 92.6625 24.1698 96.9278 20.3303L101.373 85.5146C101.491 87.2002 102.892 88.5076 104.582 88.5076C106.272 88.5076 107.673 87.2002 107.791 85.5146L112.297 19.3374C115.564 21.281 118.325 23.9704 120.353 27.1857C120.638 27.6772 121.169 27.9738 121.737 27.9591C122.305 27.9443 122.82 27.6207 123.08 27.115C123.339 26.6094 123.302 26.0025 122.982 25.5325C120.357 21.3479 116.623 17.9733 112.196 15.7838ZM47.0905 46.5603V41.8988H71.9517V46.5603H47.0905ZM46.3494 49.6679H50.3893C47.3569 52.4934 45.5646 56.4031 45.4031 60.5447C45.4031 61.4028 46.0988 62.0985 46.9569 62.0985C47.8151 62.0985 48.5107 61.4028 48.5107 60.5447C48.6578 57.5796 49.8674 54.7666 51.9183 52.6202C51.2517 55.8009 50.7684 59.8051 51.6976 62.5895C51.9688 63.4048 52.8495 63.8458 53.6647 63.5746C54.48 63.3035 54.921 62.4227 54.6499 61.6075C53.6477 58.5977 54.9839 52.7072 55.8743 49.6679H72.6819C74.559 52.5316 82.0934 65.0181 84.9276 84.618C83.9582 84.089 82.8665 83.8248 81.7625 83.852C78.6067 83.852 78.3285 85.4058 76.1843 85.4058C75.4598 85.4292 74.7461 85.2261 74.1425 84.8247C73.077 84.165 71.8435 83.8272 70.5905 83.852C67.4378 83.852 67.127 85.4058 64.9968 85.4058C62.8385 85.4058 62.5946 83.852 59.403 83.852C56.2487 83.852 55.9411 85.4058 53.8093 85.4058C51.6774 85.4058 51.362 83.852 48.2155 83.852C45.069 83.852 44.752 85.4058 42.6217 85.4058C40.4635 85.4058 40.2195 83.852 37.028 83.852C35.923 83.8243 34.8301 84.0868 33.8582 84.6134C36.725 64.9917 44.449 52.5037 46.3494 49.6679ZM68.5426 4.60715L71.4855 6.50126L69.22 12.4695L65.3976 10.2537L68.5426 4.60715ZM50.2324 4.61648L53.3711 10.2475L49.5533 12.4695L47.2723 6.5168C51.3278 3.90017 49.9309 4.81692 50.2324 4.61648ZM42.2737 24.9808C41.7842 24.2148 41.1674 23.427 41.6988 22.6035C43.0832 20.4452 43.7856 17.2677 43.8493 12.8921C43.8586 12.1385 44.1818 11.9443 45.5274 10.5971L46.6539 13.5711C47.111 14.7769 48.2654 15.5751 49.5549 15.5771C50.5742 15.5771 50.8974 15.2835 53.2064 13.9378C54.8182 15.5962 57.081 16.4568 59.3875 16.2888C61.6935 16.4566 63.9556 15.596 65.567 13.9378C67.5 15.0628 68.1168 15.5771 69.2185 15.5771C70.5103 15.5777 71.6677 14.7791 72.1257 13.5711L73.2522 10.5971C74.3492 11.6941 74.9195 12.0655 74.9319 12.8937C75.0717 22.6625 78.1949 22.1917 77.0404 24.1309C74.0363 28.4554 72.2991 33.5328 72.0247 38.7912H47.0128C46.7157 33.843 45.0774 29.0689 42.2737 24.9808ZM81.7687 90.0673C78.6113 90.0673 78.3192 91.6211 76.1749 91.6211C75.4505 91.644 74.737 91.4409 74.1332 91.04C73.0691 90.3808 71.8373 90.0431 70.5858 90.0673C67.4269 90.0673 67.1348 91.6211 64.9921 91.6211C64.2682 91.6443 63.555 91.4411 62.9519 91.04C61.8864 90.3803 60.6529 90.0425 59.3999 90.0673C56.241 90.0673 55.952 91.6211 53.8061 91.6211C51.6603 91.6211 51.4039 90.0673 48.2124 90.0673C45.0581 90.0673 44.7489 91.6211 42.6186 91.6211C40.5645 91.6211 40.1294 90.0673 37.0218 90.0673C35.6284 90.0549 34.2637 90.4632 33.1061 91.2389C33.1885 90.2164 33.2879 89.2189 33.3967 88.2275C35.0686 87.7226 35.3685 86.9596 37.028 86.9596C39.1396 86.9596 39.4753 88.5135 42.6217 88.5135C45.7682 88.5135 46.0837 86.9596 48.2155 86.9596C50.3722 86.9596 50.6177 88.5135 53.8093 88.5135C56.962 88.5135 57.2727 86.9596 59.403 86.9596C61.5333 86.9596 61.8503 88.5135 64.9968 88.5135C68.1432 88.5135 68.4571 86.9596 70.5905 86.9596C71.315 86.9362 72.0287 87.1394 72.6322 87.5408C73.6977 88.2007 74.9312 88.5385 76.1843 88.5135C79.3292 88.5135 79.6617 86.9596 81.7625 86.9596C83.439 86.9596 83.6395 87.7039 85.3844 88.2291C85.4916 89.2158 85.5911 90.2133 85.6734 91.2326C84.519 90.4596 83.158 90.0534 81.7687 90.0673ZM108.653 14.5299C105.961 13.7991 103.116 13.853 100.453 14.6852C102.195 9.64309 106.804 9.49858 108.653 14.5299ZM109.243 17.9374C109.189 21.6728 107.08 24.8068 104.582 24.8068C102.147 24.8068 100.096 21.8266 99.9484 18.2186C102.878 16.8599 106.237 16.7583 109.243 17.9374ZM104.691 85.3048C104.366 85.3048 104.789 89.9476 100.453 26.3544C102.813 28.435 106.351 28.435 108.71 26.3544L104.691 85.3048Z"/>
</mask>
<path d="M112.196 15.7838C111.468 11.1845 108.331 7.7148 104.582 7.7148C100.668 7.7148 97.4343 11.4999 96.8982 16.4007C91.0636 20.2246 87.5893 27.9331 86.5747 34.7513C84.9665 45.5969 87.4106 57.7478 82.8191 63.3897C80.8672 57.8459 78.2622 52.5542 75.0593 47.6262C75.0593 37.242 74.4673 34.2727 79.7068 25.7282C80.6226 24.2573 80.619 22.3927 79.6975 20.9254C78.1188 18.4641 78.0597 14.2439 78.0395 12.8455C78.0238 11.6345 77.5346 10.4778 76.6768 9.62289L74.4455 7.40403C74.8473 6.08942 74.3349 4.66725 73.1869 3.91104L70.2595 2.01538C69.5366 1.53738 68.6468 1.38301 67.8051 1.58953C66.9634 1.79606 66.2461 2.34471 65.8265 3.10306L62.68 8.74653C62.0749 9.8328 62.1809 11.1761 62.9488 12.1541C60.7759 13.5369 57.999 13.5369 55.8261 12.1541C56.5961 11.1724 56.7003 9.82399 56.0903 8.73565L52.9515 3.10461C52.532 2.34536 51.8141 1.79603 50.9716 1.58946C50.1291 1.38289 49.2386 1.53787 48.5154 2.01694L45.5631 3.92037C44.4244 4.67631 43.9186 6.09129 44.3201 7.39782L42.0981 9.62599C41.2408 10.4787 40.7516 11.6333 40.7354 12.8424C40.7152 14.2315 40.6546 18.4579 39.0759 20.9223C38.158 22.3916 38.158 24.2558 39.0759 25.7251C39.2391 25.9986 39.4349 26.3063 39.6524 26.6481C44.5951 34.425 43.9829 37.9444 43.9829 47.6153C42.0624 50.3609 32.0185 65.795 30.0094 90.9996C29.9221 92.1223 30.449 93.2045 31.3867 93.8281C32.3245 94.4518 33.5262 94.5193 34.5279 94.0046C35.2505 93.4712 36.1236 93.1807 37.0218 93.1749C39.0806 93.1749 39.5157 94.7287 42.6233 94.7287C45.776 94.7287 46.0852 93.1749 48.2171 93.1749C50.324 93.1749 50.669 94.7287 53.8108 94.7287C56.9526 94.7287 57.2696 93.1749 59.4046 93.1749C60.129 93.1517 60.8426 93.3548 61.4463 93.756C62.5099 94.4149 63.7412 94.7526 64.9921 94.7287C68.1448 94.7287 68.454 93.1749 70.5858 93.1749C71.3102 93.152 72.0238 93.3551 72.6276 93.756C73.6926 94.4157 74.9255 94.7535 76.178 94.7287C79.3354 94.7287 79.6275 93.1749 81.7718 93.1749C82.6612 93.1782 83.5266 93.4633 84.2439 93.9891C85.2456 94.5066 86.449 94.441 87.3884 93.8177C88.3279 93.1944 88.8561 92.1112 88.7687 90.9871C88.1288 82.7242 86.514 74.5659 83.958 66.6823C91.1413 60.4235 87.9296 46.8043 89.6481 35.2128C90.3365 30.5886 92.6625 24.1698 96.9278 20.3303L101.373 85.5146C101.491 87.2002 102.892 88.5076 104.582 88.5076C106.272 88.5076 107.673 87.2002 107.791 85.5146L112.297 19.3374C115.564 21.281 118.325 23.9704 120.353 27.1857C120.638 27.6772 121.169 27.9738 121.737 27.9591C122.305 27.9443 122.82 27.6207 123.08 27.115C123.339 26.6094 123.302 26.0025 122.982 25.5325C120.357 21.3479 116.623 17.9733 112.196 15.7838ZM47.0905 46.5603V41.8988H71.9517V46.5603H47.0905ZM46.3494 49.6679H50.3893C47.3569 52.4934 45.5646 56.4031 45.4031 60.5447C45.4031 61.4028 46.0988 62.0985 46.9569 62.0985C47.8151 62.0985 48.5107 61.4028 48.5107 60.5447C48.6578 57.5796 49.8674 54.7666 51.9183 52.6202C51.2517 55.8009 50.7684 59.8051 51.6976 62.5895C51.9688 63.4048 52.8495 63.8458 53.6647 63.5746C54.48 63.3035 54.921 62.4227 54.6499 61.6075C53.6477 58.5977 54.9839 52.7072 55.8743 49.6679H72.6819C74.559 52.5316 82.0934 65.0181 84.9276 84.618C83.9582 84.089 82.8665 83.8248 81.7625 83.852C78.6067 83.852 78.3285 85.4058 76.1843 85.4058C75.4598 85.4292 74.7461 85.2261 74.1425 84.8247C73.077 84.165 71.8435 83.8272 70.5905 83.852C67.4378 83.852 67.127 85.4058 64.9968 85.4058C62.8385 85.4058 62.5946 83.852 59.403 83.852C56.2487 83.852 55.9411 85.4058 53.8093 85.4058C51.6774 85.4058 51.362 83.852 48.2155 83.852C45.069 83.852 44.752 85.4058 42.6217 85.4058C40.4635 85.4058 40.2195 83.852 37.028 83.852C35.923 83.8243 34.8301 84.0868 33.8582 84.6134C36.725 64.9917 44.449 52.5037 46.3494 49.6679ZM68.5426 4.60715L71.4855 6.50126L69.22 12.4695L65.3976 10.2537L68.5426 4.60715ZM50.2324 4.61648L53.3711 10.2475L49.5533 12.4695L47.2723 6.5168C51.3278 3.90017 49.9309 4.81692 50.2324 4.61648ZM42.2737 24.9808C41.7842 24.2148 41.1674 23.427 41.6988 22.6035C43.0832 20.4452 43.7856 17.2677 43.8493 12.8921C43.8586 12.1385 44.1818 11.9443 45.5274 10.5971L46.6539 13.5711C47.111 14.7769 48.2654 15.5751 49.5549 15.5771C50.5742 15.5771 50.8974 15.2835 53.2064 13.9378C54.8182 15.5962 57.081 16.4568 59.3875 16.2888C61.6935 16.4566 63.9556 15.596 65.567 13.9378C67.5 15.0628 68.1168 15.5771 69.2185 15.5771C70.5103 15.5777 71.6677 14.7791 72.1257 13.5711L73.2522 10.5971C74.3492 11.6941 74.9195 12.0655 74.9319 12.8937C75.0717 22.6625 78.1949 22.1917 77.0404 24.1309C74.0363 28.4554 72.2991 33.5328 72.0247 38.7912H47.0128C46.7157 33.843 45.0774 29.0689 42.2737 24.9808ZM81.7687 90.0673C78.6113 90.0673 78.3192 91.6211 76.1749 91.6211C75.4505 91.644 74.737 91.4409 74.1332 91.04C73.0691 90.3808 71.8373 90.0431 70.5858 90.0673C67.4269 90.0673 67.1348 91.6211 64.9921 91.6211C64.2682 91.6443 63.555 91.4411 62.9519 91.04C61.8864 90.3803 60.6529 90.0425 59.3999 90.0673C56.241 90.0673 55.952 91.6211 53.8061 91.6211C51.6603 91.6211 51.4039 90.0673 48.2124 90.0673C45.0581 90.0673 44.7489 91.6211 42.6186 91.6211C40.5645 91.6211 40.1294 90.0673 37.0218 90.0673C35.6284 90.0549 34.2637 90.4632 33.1061 91.2389C33.1885 90.2164 33.2879 89.2189 33.3967 88.2275C35.0686 87.7226 35.3685 86.9596 37.028 86.9596C39.1396 86.9596 39.4753 88.5135 42.6217 88.5135C45.7682 88.5135 46.0837 86.9596 48.2155 86.9596C50.3722 86.9596 50.6177 88.5135 53.8093 88.5135C56.962 88.5135 57.2727 86.9596 59.403 86.9596C61.5333 86.9596 61.8503 88.5135 64.9968 88.5135C68.1432 88.5135 68.4571 86.9596 70.5905 86.9596C71.315 86.9362 72.0287 87.1394 72.6322 87.5408C73.6977 88.2007 74.9312 88.5385 76.1843 88.5135C79.3292 88.5135 79.6617 86.9596 81.7625 86.9596C83.439 86.9596 83.6395 87.7039 85.3844 88.2291C85.4916 89.2158 85.5911 90.2133 85.6734 91.2326C84.519 90.4596 83.158 90.0534 81.7687 90.0673ZM108.653 14.5299C105.961 13.7991 103.116 13.853 100.453 14.6852C102.195 9.64309 106.804 9.49858 108.653 14.5299ZM109.243 17.9374C109.189 21.6728 107.08 24.8068 104.582 24.8068C102.147 24.8068 100.096 21.8266 99.9484 18.2186C102.878 16.8599 106.237 16.7583 109.243 17.9374ZM104.691 85.3048C104.366 85.3048 104.789 89.9476 100.453 26.3544C102.813 28.435 106.351 28.435 108.71 26.3544L104.691 85.3048Z" fill="#CE1567"/>
<path d="M112.196 15.7838C111.468 11.1845 108.331 7.7148 104.582 7.7148C100.668 7.7148 97.4343 11.4999 96.8982 16.4007C91.0636 20.2246 87.5893 27.9331 86.5747 34.7513C84.9665 45.5969 87.4106 57.7478 82.8191 63.3897C80.8672 57.8459 78.2622 52.5542 75.0593 47.6262C75.0593 37.242 74.4673 34.2727 79.7068 25.7282C80.6226 24.2573 80.619 22.3927 79.6975 20.9254C78.1188 18.4641 78.0597 14.2439 78.0395 12.8455C78.0238 11.6345 77.5346 10.4778 76.6768 9.62289L74.4455 7.40403C74.8473 6.08942 74.3349 4.66725 73.1869 3.91104L70.2595 2.01538C69.5366 1.53738 68.6468 1.38301 67.8051 1.58953C66.9634 1.79606 66.2461 2.34471 65.8265 3.10306L62.68 8.74653C62.0749 9.8328 62.1809 11.1761 62.9488 12.1541C60.7759 13.5369 57.999 13.5369 55.8261 12.1541C56.5961 11.1724 56.7003 9.82399 56.0903 8.73565L52.9515 3.10461C52.532 2.34536 51.8141 1.79603 50.9716 1.58946C50.1291 1.38289 49.2386 1.53787 48.5154 2.01694L45.5631 3.92037C44.4244 4.67631 43.9186 6.09129 44.3201 7.39782L42.0981 9.62599C41.2408 10.4787 40.7516 11.6333 40.7354 12.8424C40.7152 14.2315 40.6546 18.4579 39.0759 20.9223C38.158 22.3916 38.158 24.2558 39.0759 25.7251C39.2391 25.9986 39.4349 26.3063 39.6524 26.6481C44.5951 34.425 43.9829 37.9444 43.9829 47.6153C42.0624 50.3609 32.0185 65.795 30.0094 90.9996C29.9221 92.1223 30.449 93.2045 31.3867 93.8281C32.3245 94.4518 33.5262 94.5193 34.5279 94.0046C35.2505 93.4712 36.1236 93.1807 37.0218 93.1749C39.0806 93.1749 39.5157 94.7287 42.6233 94.7287C45.776 94.7287 46.0852 93.1749 48.2171 93.1749C50.324 93.1749 50.669 94.7287 53.8108 94.7287C56.9526 94.7287 57.2696 93.1749 59.4046 93.1749C60.129 93.1517 60.8426 93.3548 61.4463 93.756C62.5099 94.4149 63.7412 94.7526 64.9921 94.7287C68.1448 94.7287 68.454 93.1749 70.5858 93.1749C71.3102 93.152 72.0238 93.3551 72.6276 93.756C73.6926 94.4157 74.9255 94.7535 76.178 94.7287C79.3354 94.7287 79.6275 93.1749 81.7718 93.1749C82.6612 93.1782 83.5266 93.4633 84.2439 93.9891C85.2456 94.5066 86.449 94.441 87.3884 93.8177C88.3279 93.1944 88.8561 92.1112 88.7687 90.9871C88.1288 82.7242 86.514 74.5659 83.958 66.6823C91.1413 60.4235 87.9296 46.8043 89.6481 35.2128C90.3365 30.5886 92.6625 24.1698 96.9278 20.3303L101.373 85.5146C101.491 87.2002 102.892 88.5076 104.582 88.5076C106.272 88.5076 107.673 87.2002 107.791 85.5146L112.297 19.3374C115.564 21.281 118.325 23.9704 120.353 27.1857C120.638 27.6772 121.169 27.9738 121.737 27.9591C122.305 27.9443 122.82 27.6207 123.08 27.115C123.339 26.6094 123.302 26.0025 122.982 25.5325C120.357 21.3479 116.623 17.9733 112.196 15.7838ZM47.0905 46.5603V41.8988H71.9517V46.5603H47.0905ZM46.3494 49.6679H50.3893C47.3569 52.4934 45.5646 56.4031 45.4031 60.5447C45.4031 61.4028 46.0988 62.0985 46.9569 62.0985C47.8151 62.0985 48.5107 61.4028 48.5107 60.5447C48.6578 57.5796 49.8674 54.7666 51.9183 52.6202C51.2517 55.8009 50.7684 59.8051 51.6976 62.5895C51.9688 63.4048 52.8495 63.8458 53.6647 63.5746C54.48 63.3035 54.921 62.4227 54.6499 61.6075C53.6477 58.5977 54.9839 52.7072 55.8743 49.6679H72.6819C74.559 52.5316 82.0934 65.0181 84.9276 84.618C83.9582 84.089 82.8665 83.8248 81.7625 83.852C78.6067 83.852 78.3285 85.4058 76.1843 85.4058C75.4598 85.4292 74.7461 85.2261 74.1425 84.8247C73.077 84.165 71.8435 83.8272 70.5905 83.852C67.4378 83.852 67.127 85.4058 64.9968 85.4058C62.8385 85.4058 62.5946 83.852 59.403 83.852C56.2487 83.852 55.9411 85.4058 53.8093 85.4058C51.6774 85.4058 51.362 83.852 48.2155 83.852C45.069 83.852 44.752 85.4058 42.6217 85.4058C40.4635 85.4058 40.2195 83.852 37.028 83.852C35.923 83.8243 34.8301 84.0868 33.8582 84.6134C36.725 64.9917 44.449 52.5037 46.3494 49.6679ZM68.5426 4.60715L71.4855 6.50126L69.22 12.4695L65.3976 10.2537L68.5426 4.60715ZM50.2324 4.61648L53.3711 10.2475L49.5533 12.4695L47.2723 6.5168C51.3278 3.90017 49.9309 4.81692 50.2324 4.61648ZM42.2737 24.9808C41.7842 24.2148 41.1674 23.427 41.6988 22.6035C43.0832 20.4452 43.7856 17.2677 43.8493 12.8921C43.8586 12.1385 44.1818 11.9443 45.5274 10.5971L46.6539 13.5711C47.111 14.7769 48.2654 15.5751 49.5549 15.5771C50.5742 15.5771 50.8974 15.2835 53.2064 13.9378C54.8182 15.5962 57.081 16.4568 59.3875 16.2888C61.6935 16.4566 63.9556 15.596 65.567 13.9378C67.5 15.0628 68.1168 15.5771 69.2185 15.5771C70.5103 15.5777 71.6677 14.7791 72.1257 13.5711L73.2522 10.5971C74.3492 11.6941 74.9195 12.0655 74.9319 12.8937C75.0717 22.6625 78.1949 22.1917 77.0404 24.1309C74.0363 28.4554 72.2991 33.5328 72.0247 38.7912H47.0128C46.7157 33.843 45.0774 29.0689 42.2737 24.9808ZM81.7687 90.0673C78.6113 90.0673 78.3192 91.6211 76.1749 91.6211C75.4505 91.644 74.737 91.4409 74.1332 91.04C73.0691 90.3808 71.8373 90.0431 70.5858 90.0673C67.4269 90.0673 67.1348 91.6211 64.9921 91.6211C64.2682 91.6443 63.555 91.4411 62.9519 91.04C61.8864 90.3803 60.6529 90.0425 59.3999 90.0673C56.241 90.0673 55.952 91.6211 53.8061 91.6211C51.6603 91.6211 51.4039 90.0673 48.2124 90.0673C45.0581 90.0673 44.7489 91.6211 42.6186 91.6211C40.5645 91.6211 40.1294 90.0673 37.0218 90.0673C35.6284 90.0549 34.2637 90.4632 33.1061 91.2389C33.1885 90.2164 33.2879 89.2189 33.3967 88.2275C35.0686 87.7226 35.3685 86.9596 37.028 86.9596C39.1396 86.9596 39.4753 88.5135 42.6217 88.5135C45.7682 88.5135 46.0837 86.9596 48.2155 86.9596C50.3722 86.9596 50.6177 88.5135 53.8093 88.5135C56.962 88.5135 57.2727 86.9596 59.403 86.9596C61.5333 86.9596 61.8503 88.5135 64.9968 88.5135C68.1432 88.5135 68.4571 86.9596 70.5905 86.9596C71.315 86.9362 72.0287 87.1394 72.6322 87.5408C73.6977 88.2007 74.9312 88.5385 76.1843 88.5135C79.3292 88.5135 79.6617 86.9596 81.7625 86.9596C83.439 86.9596 83.6395 87.7039 85.3844 88.2291C85.4916 89.2158 85.5911 90.2133 85.6734 91.2326C84.519 90.4596 83.158 90.0534 81.7687 90.0673ZM108.653 14.5299C105.961 13.7991 103.116 13.853 100.453 14.6852C102.195 9.64309 106.804 9.49858 108.653 14.5299ZM109.243 17.9374C109.189 21.6728 107.08 24.8068 104.582 24.8068C102.147 24.8068 100.096 21.8266 99.9484 18.2186C102.878 16.8599 106.237 16.7583 109.243 17.9374ZM104.691 85.3048C104.366 85.3048 104.789 89.9476 100.453 26.3544C102.813 28.435 106.351 28.435 108.71 26.3544L104.691 85.3048Z" stroke="#CE1567" mask="url(#path-2-outside-1_984_12)"/>
</svg>
