<svg width="121" height="97" viewBox="0 0 121 97" fill="none" xmlns="http://www.w3.org/2000/svg">
<circle cx="48" cy="49" r="48" fill="#CE1567" fill-opacity="0.2"/>
<path d="M78.871 96.5C75.042 96.5 71.4896 94.963 68.8681 92.1718C66.2468 89.3809 64.9351 85.739 65.175 81.9176L65.3477 79.1664C65.3965 78.3879 66.0659 77.7972 66.8456 77.8453C67.624 77.894 68.2155 78.5647 68.1667 79.3432L67.994 82.0944C67.8035 85.1293 68.8451 88.0216 70.9269 90.238C73.0087 92.4547 75.83 93.6754 78.8708 93.6754C83.9753 93.6754 88.3421 90.2015 89.49 85.2276L90.1982 82.1593C90.3795 81.3732 90.5439 80.5398 90.6866 79.6827C90.8149 78.9133 91.5402 78.3928 92.3118 78.5216C93.0812 78.6497 93.6009 79.3772 93.4729 80.1466C93.3205 81.061 93.1448 81.9518 92.9503 82.7945L92.2421 85.8629C90.797 92.1261 85.2985 96.5 78.871 96.5Z" fill="#CE1567"/>
<path d="M67.1366 74.6489C67.1068 74.6489 67.0769 74.6479 67.0467 74.646C66.2683 74.5971 65.6769 73.9266 65.7256 73.1481L65.9045 70.2996C66.1068 67.0778 65.9838 63.8126 65.5394 60.5948C65.4328 59.8222 65.9725 59.1093 66.7453 59.0025C67.5181 58.8961 68.2308 59.4358 68.3375 60.2084C68.8077 63.6124 68.9376 67.0671 68.7235 70.4764L68.5446 73.325C68.4976 74.0732 67.876 74.6489 67.1366 74.6489Z" fill="#CE1567"/>
<path d="M118.925 78.9467C118.415 78.9467 117.923 78.6696 117.671 78.1857L112.48 68.202C112.157 67.5815 111.986 66.8835 111.986 66.1836V61.0781C111.986 60.2982 112.619 59.6659 113.399 59.6659C114.179 59.6659 114.811 60.2982 114.811 61.0781V66.1836C114.811 66.4316 114.871 66.6788 114.986 66.8988L120.177 76.8826C120.537 77.5746 120.268 78.4272 119.576 78.7871C119.368 78.8955 119.145 78.9467 118.925 78.9467Z" fill="#CE1567"/>
<path d="M52.1643 68.3234C51.8724 68.3234 51.5781 68.2332 51.3254 68.0464C50.6984 67.5826 50.566 66.6982 51.03 66.0712L56.7681 58.3139C56.9086 58.1241 57.0943 57.9727 57.3084 57.8731L59.2834 56.9551C61.6817 55.8404 63.7362 54.0919 65.2245 51.8988C65.6627 51.2533 66.5409 51.0854 67.186 51.5231C67.8315 51.9611 67.9995 52.8393 67.5615 53.4846C65.7862 56.1006 63.3354 58.1862 60.4736 59.5164L58.8249 60.2827L53.3006 67.7508C53.0237 68.1253 52.5968 68.3234 52.1643 68.3234Z" fill="#CE1567"/>
<path d="M112.469 44.7044L97.5166 31.9337C97.5377 29.4431 96.9667 27.0007 95.8375 24.7668C95.8925 24.7444 95.9479 24.7229 96.0025 24.699C98.2127 23.7247 99.7801 21.7224 100.195 19.3427C100.458 17.8324 100.018 16.3151 98.9872 15.1804C97.9561 14.0459 96.4887 13.4633 94.9593 13.58C94.8015 13.5923 94.6452 13.6143 94.4899 13.6416C94.4803 13.5456 94.4728 13.4496 94.4596 13.3533C94.2289 11.6639 93.2503 10.2048 91.7748 9.35033C90.4381 8.57606 88.8739 8.40471 87.4161 8.85587C86.8857 7.28246 85.6968 6.05175 84.1356 5.47066C82.8848 5.005 81.5428 5.01235 80.3234 5.46614C80.107 5.01197 79.8564 4.57042 79.5641 4.14919C78.4588 2.5562 76.7145 1.58233 74.7784 1.47745C73.2195 1.3929 71.7231 1.88323 70.5357 2.84204C70.5329 2.83884 70.5302 2.83564 70.5274 2.83243C69.1788 1.35016 67.2559 0.5 65.2519 0.5C62.7907 0.5 60.5364 1.74238 59.2221 3.82325C57.9076 5.90412 57.7541 8.47343 58.8112 10.6959L59.0769 11.2542C59.4128 11.9607 59.6747 12.6992 59.8587 13.458L44.5242 26.4516C42.4051 28.2474 41.1896 30.8704 41.1896 33.648V48.7596C41.1896 49.0076 41.1292 49.2548 41.0147 49.4749L35.8231 59.4586C35.4633 60.1506 35.7326 61.0032 36.4246 61.363C36.6326 61.4713 36.8554 61.5225 37.0749 61.5225C37.585 61.5225 38.0774 61.2453 38.3292 60.7614L43.5205 50.7777C43.8433 50.1571 44.0141 49.4591 44.0141 48.7594V33.6478C44.0141 31.7019 44.8655 29.8643 46.3503 28.6063L60.1502 16.9131C60.1345 17.1419 60.1136 17.3703 60.0841 17.5983L59.6962 20.583C59.6444 20.9814 59.5979 21.3806 59.5538 21.7802L54.4423 27.887C53.7995 28.6551 53.5231 29.6627 53.6841 30.6512L55.5154 41.898C55.7627 43.4174 57.0597 44.5202 58.599 44.5202H60.7599C61.8509 44.5202 62.8775 43.9392 63.439 43.0033L66.4197 38.0355C66.7291 37.5201 67.2224 37.1641 67.809 37.0332C68.3957 36.9023 68.9935 37.0145 69.4925 37.3495L69.7524 37.5239C70.6187 38.1053 70.9494 39.2236 70.5383 40.1828L67.7809 46.6179C67.4738 47.3349 67.8059 48.1649 68.5228 48.4722C68.7041 48.55 68.8928 48.5867 69.0785 48.5867C69.6264 48.5867 70.1478 48.2659 70.3771 47.7303L73.1346 41.2953C74.08 39.0888 73.3195 36.5165 71.3263 35.1788L71.0667 35.0045C69.9186 34.2341 68.5433 33.9754 67.1938 34.2767C65.8443 34.578 64.7094 35.3969 63.998 36.5824L61.0173 41.5501C60.9634 41.6401 60.8648 41.6958 60.7601 41.6958H58.5992C58.4514 41.6958 58.3271 41.59 58.3032 41.444L56.4718 30.1973C56.4428 30.0193 56.4925 29.838 56.6083 29.6998L59.2092 26.5923C59.1283 29.0402 59.1889 31.4939 59.3938 33.9325C59.4589 34.7096 60.1409 35.2875 60.9192 35.2216C61.6963 35.1562 62.2736 34.4733 62.2083 33.6962C61.852 29.454 61.9493 25.1645 62.4973 20.9468L62.8852 17.9621C63.0669 16.5629 63.0392 15.1484 62.8029 13.7576C62.8001 13.741 62.7965 13.7247 62.7937 13.7081C62.7933 13.7066 62.7931 13.7053 62.7929 13.7038C62.5722 12.4354 62.181 11.203 61.6279 10.0408L61.3624 9.48252C60.7237 8.14015 60.8165 6.58821 61.6104 5.33151C62.4043 4.07482 63.7653 3.32445 65.2519 3.32445C66.4801 3.32445 67.6116 3.82476 68.4382 4.73329C69.2649 5.64182 69.6562 6.81548 69.5405 8.03828L69.4658 8.82894C69.3308 10.2542 69.5661 11.6993 70.1465 13.008C71.2975 15.6042 73.6584 17.4243 76.4621 17.8766L83.8046 19.0614C85.7469 19.3747 87.547 20.1049 89.1114 21.1888C89.1598 21.2279 89.2104 21.2637 89.2629 21.2957C90.4588 22.1502 91.5129 23.2133 92.3789 24.4612C92.4086 24.5041 92.4356 24.5485 92.4647 24.5918C92.4666 24.5947 92.4685 24.5975 92.4704 24.6003C94.4229 27.4897 95.1237 30.9561 94.4385 34.3827L91.5622 48.7669C91.4093 49.5318 91.9053 50.2757 92.6702 50.4286C92.7638 50.4473 92.8568 50.4563 92.9487 50.4563C93.6081 50.4563 94.1978 49.992 94.3321 49.3207L95.6626 42.6674L99.427 47.1649C99.521 47.2773 99.5615 47.4245 99.5379 47.569L97.7209 58.7289C97.684 58.9557 97.4904 59.1202 97.2609 59.1202H95.3353C95.1726 59.1202 95.0194 59.0336 94.9358 58.8939L92.0934 54.1569C91.3585 52.9319 90.1856 52.0856 88.7915 51.7744C87.3973 51.4631 85.9757 51.7301 84.7892 52.5264C82.7296 53.9087 81.944 56.5669 82.9209 58.8464L86.8104 67.9239C88.5239 71.9223 91.6398 75.1341 95.5846 76.9676L97.1758 77.707L102.7 85.1751C102.977 85.5494 103.404 85.7475 103.837 85.7475C104.128 85.7475 104.423 85.6573 104.675 85.4705C105.302 85.0067 105.435 84.1223 104.971 83.4953L99.2323 75.738C99.092 75.5482 98.9064 75.3968 98.6923 75.2972L96.7749 74.4062C93.4622 72.8665 90.8454 70.1693 89.4062 66.8112L85.5168 57.7338C85.0743 56.7014 85.4304 55.4974 86.363 54.8713C86.9004 54.5107 87.5446 54.3895 88.1757 54.5307C88.8073 54.6717 89.3383 55.0549 89.671 55.6098L92.5133 60.3468C93.1046 61.3323 94.1858 61.9445 95.335 61.9445H97.2605C98.8817 61.9445 100.248 60.7831 100.508 59.1827L102.325 48.0224C102.481 47.0673 102.214 46.0938 101.592 45.3518L96.3725 39.1154L97.1317 35.3189L110.634 46.8517C111.494 47.5855 111.987 48.6545 111.987 49.7845V55.0594C111.987 55.8393 112.619 56.4716 113.399 56.4716C114.179 56.4716 114.811 55.8393 114.811 55.0594V49.7848C114.811 47.8275 113.957 45.9756 112.469 44.7044ZM95.1764 16.396C95.8279 16.345 96.4565 16.5949 96.8967 17.0795C97.3371 17.5642 97.5252 18.2123 97.4126 18.8574C97.1603 20.3043 96.2073 21.5218 94.8635 22.1142C94.6799 22.1952 94.4904 22.2562 94.2971 22.3012C93.6823 21.4902 92.9988 20.7506 92.2576 20.0844C93.1831 19.126 93.8476 17.9696 94.2112 16.7186C94.5008 16.5352 94.8331 16.4226 95.1764 16.396ZM90.3596 11.7944C91.0749 12.2087 91.5492 12.9163 91.6613 13.7354C91.7456 14.3526 91.7178 14.9685 91.5916 15.5592C91.5846 15.5871 91.5796 15.6153 91.5743 15.6436C91.3344 16.6836 90.7812 17.6394 89.9657 18.3763C88.7133 17.612 87.3529 17.0234 85.9109 16.632C85.9502 16.5858 85.9909 16.541 86.0288 16.4939C87.1401 15.116 87.7502 13.4432 87.8191 11.7278C87.8874 11.6927 87.9569 11.66 88.0281 11.6312C88.7941 11.3207 89.6437 11.38 90.3596 11.7944ZM83.1505 8.11774C83.9255 8.40602 84.5118 9.02383 84.7598 9.8126C84.892 10.2334 84.9696 10.6631 84.9948 11.0925C84.9952 11.0968 84.9952 11.1009 84.9956 11.1053C85.0683 12.3981 84.6642 13.6868 83.83 14.7209C83.46 15.18 82.9827 15.556 82.4494 15.8084L82.1764 15.9375L78.9757 15.421C79.6621 14.7004 80.2121 13.8454 80.5774 12.921C81.1826 11.3902 81.3616 9.75969 81.1404 8.18289C81.7734 7.89913 82.4882 7.87126 83.1505 8.11774ZM72.7284 11.8632C72.3441 10.9962 72.1882 10.0391 72.2776 9.095L72.3524 8.30434C72.4486 7.2881 72.3221 6.27243 71.9976 5.32398C72.6849 4.61598 73.6313 4.24372 74.6257 4.29757C75.6847 4.355 76.6388 4.8877 77.2434 5.75895C77.6842 6.39426 77.9996 7.09152 78.1911 7.81647C78.2013 7.86411 78.2141 7.91118 78.2293 7.95769C78.5385 9.24413 78.4528 10.6127 77.9506 11.8826C77.6795 12.5685 77.2494 13.1954 76.7067 13.6951L75.606 14.7091C74.3361 14.1657 73.3038 13.1611 72.7284 11.8632Z" fill="#CE1567"/>
<path d="M77.6401 62.5821C77.1329 62.5821 76.6427 62.3081 76.3896 61.8283C75.4757 60.0949 74.9927 58.1368 74.9927 56.1655C74.9927 52.7216 76.4625 49.425 79.0254 47.1212C79.6058 46.5995 80.4983 46.6475 81.0199 47.2274C81.5413 47.8074 81.4938 48.7003 80.9137 49.2217C78.9458 50.9907 77.8173 53.5214 77.8173 56.1653C77.8173 57.6794 78.1877 59.182 78.8884 60.5108C79.2521 61.2009 78.9878 62.0551 78.2978 62.4187C78.0875 62.5296 77.8623 62.5821 77.6401 62.5821Z" fill="#CE1567"/>
<path d="M84.9285 47.0617C84.2746 47.0617 83.6877 46.6049 83.5479 45.9394C83.3875 45.1761 83.8763 44.4274 84.6397 44.2671C86.1805 43.9435 87.808 43.9229 89.3567 44.2071C90.1238 44.3479 90.6317 45.0838 90.4908 45.8509C90.35 46.618 89.6145 47.1259 88.847 46.9852C87.6581 46.767 86.4036 46.7826 85.2204 47.0313C85.1227 47.0519 85.0247 47.0617 84.9285 47.0617Z" fill="#CE1567"/>
<path d="M78.3168 43.1477C78.1677 43.1477 78.0158 43.124 77.8666 43.0737C77.1274 42.8252 76.7295 42.0244 76.978 41.2851C77.2746 40.4033 77.4249 39.4793 77.4249 38.5388C77.4249 33.7916 73.5627 29.9295 68.8156 29.9295C68.2303 29.9295 67.6461 29.9882 67.0789 30.1044C66.315 30.2615 65.5686 29.7681 65.4123 29.004C65.2558 28.2399 65.7486 27.4937 66.5127 27.3374C67.2657 27.1834 68.0405 27.1052 68.8156 27.1052C75.1201 27.1052 80.2493 32.2344 80.2493 38.539C80.2493 39.7861 80.0494 41.013 79.6553 42.1854C79.4568 42.7753 78.9066 43.1477 78.3168 43.1477Z" fill="#CE1567"/>
</svg>
