<svg width="34" height="34" viewBox="0 0 34 34" fill="none" xmlns="http://www.w3.org/2000/svg">
<path d="M29.1293 33.3635C29.0027 33.3635 28.8737 33.3635 28.7482 33.3459H28.7271C23.8297 32.8096 19.1246 31.1395 14.9851 28.4681C11.1447 26.025 7.8845 22.7724 5.43245 18.9377C2.74728 14.79 1.07333 10.0698 0.545297 5.15707V5.1383C0.492707 4.55272 0.56262 3.9626 0.750587 3.40551C0.938555 2.84843 1.24046 2.33658 1.63707 1.90257C2.03369 1.46855 2.51633 1.12187 3.05427 0.884599C3.59221 0.647327 4.17366 0.524663 4.7616 0.524414H9.39307C10.413 0.523961 11.3989 0.891387 12.1697 1.55925C12.9405 2.22711 13.4446 3.15058 13.5894 4.16017V4.17072C13.7721 5.55203 14.1104 6.90823 14.5981 8.21344C14.8814 8.97131 14.9419 9.79441 14.7725 10.5856C14.6032 11.3767 14.211 12.1029 13.6422 12.6784L12.3416 13.9767C14.2416 17.032 16.8221 19.6069 19.8816 21.5004L21.1846 20.1997C21.7612 19.6308 22.4886 19.2388 23.2808 19.0701C24.0731 18.9013 24.8971 18.9628 25.6554 19.2474C26.9633 19.7339 28.3218 20.0715 29.7052 20.2536H29.7158C30.7421 20.3973 31.6802 20.9123 32.3522 21.7013C33.0242 22.4902 33.3835 23.4983 33.3621 24.5344V29.1085C33.3645 29.666 33.2569 30.2186 33.0453 30.7345C32.8338 31.2504 32.5224 31.7195 32.1292 32.1148C31.7359 32.5101 31.2685 32.8239 30.7537 33.0382C30.239 33.2525 29.6869 33.363 29.1293 33.3635ZM28.9675 31.0108C29.0214 31.0108 29.0754 31.0178 29.1293 31.0178C29.3782 31.0181 29.6247 30.9693 29.8546 30.8741C30.0846 30.779 30.2935 30.6393 30.4694 30.4632C30.6452 30.2872 30.7846 30.0781 30.8795 29.848C30.9744 29.6179 31.0229 29.3714 31.0223 29.1225V24.5274C31.0223 24.518 31.0223 24.5083 31.0223 24.4981C31.0332 24.0355 30.874 23.5849 30.5748 23.2319C30.2756 22.8789 29.8572 22.6479 29.3991 22.5829C27.8417 22.3772 26.3125 21.9967 24.8403 21.4487C24.5024 21.3221 24.1353 21.2944 23.7821 21.3689C23.429 21.4435 23.1044 21.6173 22.8465 21.8698L20.9008 23.8108C20.7193 23.992 20.4833 24.1087 20.2291 24.143C19.9749 24.1774 19.7165 24.1274 19.4934 24.0008C15.4738 21.7204 12.1437 18.398 9.85399 14.3837C9.7274 14.1606 9.67744 13.9021 9.71176 13.6479C9.74607 13.3937 9.86278 13.1578 10.044 12.9763L11.9885 11.0353C12.2411 10.7789 12.4151 10.4556 12.4902 10.1037C12.5652 9.75167 12.538 9.38557 12.4119 9.04849C11.8624 7.57857 11.4807 6.05124 11.2743 4.49559C11.2083 4.04383 10.9819 3.63091 10.6365 3.33241C10.291 3.03391 9.84963 2.86978 9.39307 2.87006H4.76277C4.50113 2.86994 4.24232 2.92416 4.00272 3.02928C3.76313 3.13441 3.54799 3.28815 3.37092 3.48077C3.19384 3.67339 3.05871 3.90068 2.97407 4.14825C2.88943 4.39582 2.85713 4.65828 2.87922 4.91898C3.36958 9.46155 4.91896 13.8257 7.40279 17.6605V17.6687C9.6705 21.2183 12.6871 24.2289 16.2412 26.4895H16.2506C20.0797 28.9635 24.4325 30.5115 28.964 31.0108H28.9675Z" fill="white"/>
</svg>
