<svg width="34" height="28" viewBox="0 0 34 28" fill="none" xmlns="http://www.w3.org/2000/svg">
<path d="M5.15922 27.4315C4.03584 27.4247 2.96117 26.9732 2.16989 26.1758C1.37862 25.3784 0.935632 24.2998 0.937513 23.1765V4.70807C0.934703 3.58439 1.37842 2.50549 2.16989 1.70786C2.96137 0.910228 4.03556 0.458899 5.15922 0.453003H29.5549C30.6786 0.45859 31.7549 0.909732 32.5465 1.70743C33.338 2.50513 33.7797 3.5843 33.7766 4.70807V23.1765C33.7787 24.2999 33.3355 25.3786 32.5442 26.1761C31.7528 26.9736 30.6783 27.425 29.5549 27.4315H5.15922ZM3.28316 23.1765C3.28115 23.4249 3.32738 23.6713 3.4206 23.9016C3.51382 24.1319 3.6518 24.3416 3.82605 24.5186C4.0003 24.6957 4.2089 24.8368 4.43766 24.9337C4.66641 25.0306 4.91079 25.0816 5.15922 25.0836H29.5549C29.8033 25.0816 30.0477 25.0306 30.2764 24.9337C30.5052 24.8368 30.7138 24.6957 30.888 24.5186C31.0623 24.3416 31.2003 24.1319 31.2935 23.9016C31.3867 23.6713 31.4329 23.4249 31.4309 23.1765V6.99158L18.0374 16.5009C17.8387 16.6421 17.6008 16.7179 17.357 16.7178C17.1133 16.7179 16.8754 16.6421 16.6767 16.5009L3.28316 6.99158V23.1765ZM17.357 14.1094L31.3553 4.1709C31.2452 3.77722 31.0095 3.43024 30.6842 3.18277C30.3588 2.93529 29.9614 2.80092 29.5526 2.79994H5.15922C4.75071 2.80208 4.35278 2.9369 4.02763 3.1842C3.70248 3.4315 3.46761 3.77781 3.35646 4.1709L17.357 14.1094Z" fill="white"/>
</svg>
