<svg width="34" height="41" viewBox="0 0 34 41" fill="none" xmlns="http://www.w3.org/2000/svg">
<path d="M16.7043 40.3882C13.8708 38.4032 11.2495 36.1315 8.88162 33.6092C6.76931 31.4161 4.94772 28.9604 3.4619 26.3026C1.87661 23.5409 1.00845 20.426 0.937577 17.2425C0.930965 15.0743 1.35168 12.926 2.17683 10.9208C3.00198 8.91573 4.21488 7.09323 5.74569 5.55767C7.26215 4.01959 9.07098 2.79928 11.0646 1.96819C13.0583 1.1371 15.1972 0.711827 17.3571 0.717338C19.5169 0.712612 21.656 1.13829 23.6496 1.96933C25.6431 2.80038 27.4516 4.02022 28.9685 5.55767C30.4983 7.09365 31.7088 8.91644 32.5328 10.9216C33.3567 12.9267 33.7775 15.0747 33.7698 17.2425C33.6985 20.4253 32.832 23.5398 31.25 26.3026C29.7651 28.9603 27.9442 31.416 25.8326 33.6092C23.4613 36.1288 20.8396 38.4003 18.0077 40.3882C17.814 40.5188 17.5862 40.5887 17.3525 40.5887C17.1212 40.5881 16.8956 40.5182 16.7043 40.3882ZM7.41101 7.21253C6.09602 8.52994 5.05457 10.0942 4.34609 11.8155C3.63761 13.5368 3.27433 15.3811 3.28093 17.2425C3.28093 27.0544 14.5025 35.8904 17.3548 37.9768C19.7966 36.1814 22.0741 34.1714 24.1581 31.9708C26.1217 29.9271 27.8174 27.6412 29.2022 25.1684C30.5921 22.7539 31.3562 20.031 31.4287 17.246C31.4346 15.3851 31.0757 13.5413 30.3681 11.8202C29.6605 10.0991 28.6186 8.53453 27.3055 7.21597C26.0072 5.89703 24.4593 4.85032 22.7516 4.13702C21.0439 3.42373 19.2124 3.05818 17.3617 3.06184C15.511 3.05677 13.6778 3.42085 11.9694 4.13273C10.2611 4.84461 8.71045 5.89003 7.41101 7.20781V7.21253ZM10.3179 17.1545C10.3197 15.2887 11.0625 13.5 12.3818 12.1807C13.701 10.8614 15.4891 10.1194 17.3548 10.1175C19.2211 10.1175 21.0105 10.859 22.3301 12.1787C23.6498 13.4984 24.3917 15.2882 24.3917 17.1545C24.3917 19.0208 23.6498 20.8107 22.3301 22.1304C21.0105 23.4501 19.2211 24.1914 17.3548 24.1914C15.4889 24.1889 13.7006 23.4462 12.3818 22.1262C11.0629 20.8063 10.3211 19.017 10.3202 17.151L10.3179 17.1545ZM12.6635 17.1545C12.666 18.3979 13.161 19.5898 14.0402 20.4691C14.9195 21.3483 16.1114 21.8433 17.3548 21.8458C18.599 21.8458 19.7919 21.3516 20.6717 20.4718C21.5515 19.592 22.0461 18.3987 22.0461 17.1545C22.0461 15.9103 21.5515 14.7171 20.6717 13.8373C19.7919 12.9575 18.599 12.4632 17.3548 12.4632C16.1124 12.4663 14.9211 12.9612 14.0425 13.8396C13.1639 14.718 12.6692 15.9086 12.6658 17.151L12.6635 17.1545Z" fill="white"/>
</svg>
