<svg width="45" height="45" viewBox="0 0 45 45" fill="none" xmlns="http://www.w3.org/2000/svg">
<circle cx="22.5" cy="22.5" r="22.5" fill="#CE1567" fill-opacity="0.2"/>
<path d="M22.3026 25.4849V23.0787C22.3026 22.7441 22.4383 22.4409 22.6578 22.2219C22.8768 22.0024 23.18 21.8667 23.5146 21.8667C24.1842 21.8667 24.7266 22.4095 24.7266 23.0787V23.6661" stroke="#CE1567" stroke-width="0.75" stroke-miterlimit="10" stroke-linecap="round" stroke-linejoin="round"/>
<path d="M24.7266 25.4849V23.6661C24.7266 23.3315 24.8623 23.0287 25.0817 22.8093C25.3008 22.5898 25.604 22.4541 25.9386 22.4541C26.6082 22.4541 27.1506 22.9969 27.1506 23.6661V24.5838" stroke="#CE1567" stroke-width="0.75" stroke-miterlimit="10" stroke-linecap="round" stroke-linejoin="round"/>
<path d="M16.6363 28.3539L14.8744 26.0034C14.4524 25.4411 14.5792 24.6411 15.1546 24.2364C15.3723 24.0834 15.6222 24.0096 15.8708 24.0096C16.242 24.0096 16.6083 24.1748 16.8532 24.4881L19.1856 27.4702C19.4128 27.7603 19.8787 27.5996 19.8787 27.2311V17.4642C19.8787 17.1297 20.0145 16.8268 20.2336 16.6072C20.4591 16.3813 20.7737 16.2441 21.12 16.2523C21.7819 16.2681 22.3025 16.8263 22.3025 17.4887V23.0784" stroke="#CE1567" stroke-width="0.75" stroke-miterlimit="10" stroke-linecap="round" stroke-linejoin="round"/>
<path d="M17.5866 29.6217L19.3925 32.0311C20.2033 33.1126 21.4768 33.7496 22.8286 33.7496H25.4453C26.1742 33.7496 26.8781 33.5645 27.4988 33.2267C28.1195 32.8885 28.6573 32.3974 29.0525 31.7853C29.3939 31.257 29.5754 30.6413 29.5754 30.0124V28.356V24.5826C29.575 23.9134 29.0326 23.3711 28.363 23.3711C28.028 23.3711 27.7252 23.5069 27.5056 23.7265C27.2865 23.9456 27.1507 24.2489 27.1507 24.5835V25.8153" stroke="#CE1567" stroke-width="0.75" stroke-miterlimit="10" stroke-linecap="round" stroke-linejoin="round"/>
<path d="M24.8291 13.9316C24.964 14.3291 25.0369 14.7542 25.0369 15.1961C25.0369 16.4311 24.4665 17.5353 23.5751 18.2596" stroke="#CE1567" stroke-width="0.75" stroke-miterlimit="10" stroke-linecap="round" stroke-linejoin="round"/>
<path d="M18.6056 18.2599C17.7147 17.5355 17.1443 16.4313 17.1443 15.1963C17.1443 13.0206 18.9144 11.25 21.0906 11.25C22.2527 11.25 23.2989 11.7548 24.0215 12.557" stroke="#CE1567" stroke-width="0.75" stroke-miterlimit="10" stroke-linecap="round" stroke-linejoin="round"/>
<path d="M18.8908 16.3072C18.7217 15.9732 18.6262 15.5959 18.6262 15.1959C18.6262 13.835 19.7298 12.7314 21.0907 12.7314C22.4516 12.7314 23.5547 13.835 23.5547 15.1959C23.5547 15.5986 23.4579 15.9791 23.2865 16.3149" stroke="#CE1567" stroke-width="0.75" stroke-miterlimit="10" stroke-linecap="round" stroke-linejoin="round"/>
</svg>
