<svg width="45" height="45" viewBox="0 0 45 45" fill="none" xmlns="http://www.w3.org/2000/svg">
<circle cx="22.5" cy="22.5" r="22.5" fill="#CE1567" fill-opacity="0.2"/>
<path d="M33.4536 13.593H32.1922V12.6833C32.1922 11.893 31.5492 11.25 30.7589 11.25C29.9686 11.25 29.3257 11.893 29.3257 12.6833V13.593H26.9369V12.6833C26.9369 11.893 26.2939 11.25 25.5036 11.25C24.7133 11.25 24.0703 11.893 24.0703 12.6833V13.593H21.6815V12.6833C21.6815 11.893 21.0385 11.25 20.2482 11.25C19.4579 11.25 18.8149 11.893 18.8149 12.6833V13.593H16.4261V12.6833C16.4261 11.893 15.7832 11.25 14.9929 11.25C14.2025 11.25 13.5595 11.893 13.5595 12.6833V13.593H12.2982C11.0998 13.593 10.125 14.568 10.125 15.7663V31.1538C10.125 32.5854 11.2896 33.75 12.7212 33.75H14.1897C14.4272 33.75 14.6197 33.5575 14.6197 33.32C14.6197 33.0825 14.4272 32.89 14.1897 32.89H12.7212C11.7638 32.89 10.985 32.1111 10.985 31.1538V20.6976H30.3495C30.587 20.6976 30.7795 20.5051 30.7795 20.2676C30.7795 20.0301 30.587 19.8376 30.3495 19.8376H10.985V15.7662C10.985 15.0421 11.5741 14.453 12.2982 14.453H13.5595V15.4461C13.5595 16.2364 14.2025 16.8794 14.9928 16.8794C15.7831 16.8794 16.4261 16.2364 16.4261 15.4461V14.453H18.8149V15.4462C18.8149 16.2365 19.4579 16.8795 20.2482 16.8795C21.0385 16.8795 21.6814 16.2365 21.6814 15.4462V14.453H24.0702V15.4462C24.0702 16.2365 24.7132 16.8795 25.5035 16.8795C26.2938 16.8795 26.9368 16.2365 26.9368 15.4462V14.453H29.3256V15.4462C29.3256 16.2365 29.9686 16.8795 30.7589 16.8795C31.5492 16.8795 32.1922 16.2365 32.1922 15.4462V14.453H33.4535C34.1776 14.453 34.7667 15.0421 34.7667 15.7663V19.8377H32.0693C31.8318 19.8377 31.6393 20.0302 31.6393 20.2677C31.6393 20.5052 31.8318 20.6977 32.0693 20.6977H34.7667V31.1538C34.7667 32.1112 33.9879 32.89 33.0305 32.89H15.9097C15.6721 32.89 15.4797 33.0825 15.4797 33.32C15.4797 33.5575 15.6721 33.75 15.9097 33.75H33.0306C34.4622 33.75 35.6267 32.5854 35.6267 31.1538V15.7663C35.6268 14.568 34.6519 13.593 33.4536 13.593ZM15.5661 14.023V15.4462C15.5661 15.7623 15.3089 16.0195 14.9928 16.0195C14.6767 16.0195 14.4195 15.7623 14.4195 15.4462V14.023V12.6833C14.4195 12.3671 14.6767 12.11 14.9928 12.11C15.3089 12.11 15.5661 12.3672 15.5661 12.6833V14.023ZM20.8215 14.023V15.4462C20.8215 15.7623 20.5643 16.0195 20.2482 16.0195C19.9321 16.0195 19.6749 15.7623 19.6749 15.4462V14.023V12.6833C19.6749 12.3671 19.9321 12.11 20.2482 12.11C20.5643 12.11 20.8215 12.3672 20.8215 12.6833V14.023ZM26.0769 14.023V15.4462C26.0769 15.7623 25.8197 16.0195 25.5036 16.0195C25.1874 16.0195 24.9303 15.7623 24.9303 15.4462V14.023V12.6833C24.9303 12.3671 25.1875 12.11 25.5036 12.11C25.8197 12.11 26.0769 12.3672 26.0769 12.6833V14.023ZM31.3322 14.023V15.4462C31.3322 15.7623 31.075 16.0195 30.7589 16.0195C30.4428 16.0195 30.1856 15.7623 30.1856 15.4462V14.023V12.6833C30.1856 12.3671 30.4428 12.11 30.7589 12.11C31.0751 12.11 31.3322 12.3672 31.3322 12.6833V14.023Z" fill="#CE1567"/>
<path d="M16.7671 26.1064H13.9895C13.752 26.1064 13.5595 26.299 13.5595 26.5364C13.5595 26.7739 13.752 26.9664 13.9895 26.9664H16.7671C17.0046 26.9664 17.1971 26.7739 17.1971 26.5364C17.1971 26.299 17.0047 26.1064 16.7671 26.1064Z" fill="#CE1567"/>
<path d="M26.4367 26.1064H23.6591C23.4216 26.1064 23.2291 26.299 23.2291 26.5364C23.2291 26.7739 23.4216 26.9664 23.6591 26.9664H26.4367C26.6743 26.9664 26.8667 26.7739 26.8667 26.5364C26.8667 26.299 26.6743 26.1064 26.4367 26.1064Z" fill="#CE1567"/>
<path d="M22.3718 22.825C22.1665 22.7056 21.9032 22.7752 21.7839 22.9805L17.8988 29.66C17.7795 29.8653 17.849 30.1284 18.0544 30.2479C18.1224 30.2874 18.1968 30.3062 18.2702 30.3062C18.4183 30.3062 18.5625 30.2296 18.6422 30.0924L22.5273 23.4129C22.6467 23.2076 22.5771 22.9444 22.3718 22.825Z" fill="#CE1567"/>
<path d="M32.0414 22.825C31.836 22.7056 31.5729 22.7752 31.4535 22.9805L27.5684 29.66C27.4491 29.8653 27.5187 30.1284 27.724 30.2479C27.792 30.2874 27.8664 30.3062 27.9398 30.3062C28.0879 30.3062 28.2321 30.2296 28.3119 30.0924L32.197 23.4129C32.3163 23.2076 32.2467 22.9444 32.0414 22.825Z" fill="#CE1567"/>
</svg>
