<svg width="45" height="45" viewBox="0 0 45 45" fill="none" xmlns="http://www.w3.org/2000/svg">
<circle cx="22.5" cy="22.5" r="22.5" fill="#CE1567" fill-opacity="0.2"/>
<path d="M33.4241 20.3579L31.4175 20.1719C31.2032 19.3512 30.8762 18.5662 30.4429 17.832L31.7304 16.2813C31.8489 16.1387 31.8392 15.9292 31.708 15.798L29.1931 13.2831C29.062 13.152 28.8526 13.1423 28.7098 13.2607L27.1567 14.5503C26.4219 14.1181 25.6365 13.7923 24.8153 13.5791L24.6296 11.5758C24.6124 11.3912 24.4575 11.25 24.2721 11.25H20.7155C20.53 11.25 20.3751 11.3912 20.358 11.5759L20.172 13.5825C19.3512 13.7969 18.5662 14.1239 17.832 14.5571L16.2813 13.2696C16.1387 13.1511 15.9292 13.1609 15.798 13.292L13.2832 15.8069C13.1521 15.938 13.1424 16.1475 13.2608 16.2902L14.5505 17.8433C14.1183 18.5781 13.7925 19.3636 13.5793 20.1847L11.5759 20.3705C11.3912 20.3875 11.25 20.5424 11.25 20.7279V24.272C11.25 24.4575 11.3912 24.6124 11.5759 24.6295L13.5793 24.8153C13.7925 25.6364 14.1183 26.4219 14.5505 27.1567L13.2609 28.7098C13.1424 28.8525 13.1521 29.0619 13.2833 29.1931L15.7981 31.708C15.9293 31.8391 16.1387 31.8488 16.2814 31.7304L17.832 30.4429C18.5663 30.8762 19.3513 31.2032 20.172 31.4175L20.3581 33.4241C20.3752 33.6088 20.5301 33.75 20.7156 33.75H24.2722C24.4576 33.75 24.6125 33.6088 24.6297 33.4241L24.8154 31.4207C25.6366 31.2075 26.4221 30.8817 27.1568 30.4495L28.71 31.7391C28.8526 31.8576 29.062 31.8478 29.1932 31.7167L31.7082 29.2018C31.8393 29.0706 31.849 28.8612 31.7305 28.7185L30.443 27.168C30.8763 26.4337 31.2033 25.6487 31.4176 24.828L33.4242 24.6419C33.6089 24.6248 33.7501 24.4699 33.7501 24.2844V20.7153C33.75 20.53 33.6088 20.375 33.4241 20.3579ZM33.0319 23.9572L31.0968 24.1366C30.9426 24.1509 30.815 24.2624 30.7802 24.4133C30.568 25.3321 30.2042 26.2055 29.6989 27.0091C29.6163 27.1405 29.6275 27.3102 29.7267 27.4296L30.9689 28.9255L28.9168 30.9775L27.4185 29.7335C27.2992 29.6344 27.1299 29.6231 26.9985 29.7055C26.1944 30.2094 25.3205 30.5719 24.4012 30.7828C24.2501 30.8175 24.1383 30.9452 24.124 31.0996L23.9449 33.0319H21.0428L20.8634 31.0968C20.8491 30.9426 20.7376 30.8149 20.5867 30.7801C19.6679 30.5679 18.7945 30.2041 17.9909 29.6989C17.8594 29.6163 17.6898 29.6275 17.5704 29.7266L16.0744 30.9688L14.0224 28.9168L15.2665 27.4185C15.3655 27.2992 15.3768 27.1299 15.2945 26.9985C14.7905 26.1944 14.4281 25.3205 14.2172 24.4012C14.1825 24.2501 14.0548 24.1383 13.9004 24.124L11.9681 23.9449V21.0553L13.9004 20.8762C14.0548 20.8619 14.1826 20.7501 14.2172 20.599C14.428 19.6797 14.7905 18.8058 15.2944 18.0017C15.3768 17.8703 15.3654 17.701 15.2664 17.5817L14.0224 16.0834L16.0744 14.0313L17.5704 15.2736C17.6899 15.3728 17.8596 15.3839 17.9909 15.3013C18.7944 14.796 19.6678 14.4323 20.5866 14.22C20.7375 14.1852 20.849 14.0575 20.8633 13.9034L21.0428 11.9683H23.9448L24.1239 13.9006C24.1382 14.0549 24.25 14.1827 24.4011 14.2174C25.3204 14.4283 26.1943 14.7907 26.9984 15.2946C27.1298 15.3769 27.2991 15.3656 27.4184 15.2666L28.9167 14.0226L30.9687 16.0746L29.7265 17.5707C29.6274 17.6901 29.6162 17.8597 29.6988 17.9911C30.2041 18.7948 30.5678 19.6681 30.78 20.5868C30.8149 20.7377 30.9426 20.8492 31.0967 20.8636L33.0318 21.043V23.9572H33.0319Z" fill="#CE1567"/>
<path d="M22.5 14.7197C18.2105 14.7197 14.7208 18.2095 14.7208 22.499C14.7208 24.2966 15.3509 26.0512 16.4952 27.4395C16.6213 27.5925 16.8476 27.6142 17.0007 27.4883C17.1537 27.3621 17.1754 27.1359 17.0494 26.9828C16.0108 25.7227 15.4389 24.1303 15.4389 22.4989C15.4389 18.6054 18.6065 15.4377 22.5001 15.4377C26.3936 15.4377 29.5612 18.6054 29.5612 22.4989C29.5612 26.3925 26.3936 29.5601 22.5 29.5601C20.8687 29.5601 19.2762 28.9882 18.0162 27.9496C17.8632 27.8236 17.6369 27.8453 17.5107 27.9984C17.3846 28.1514 17.4064 28.3777 17.5594 28.5039C18.9478 29.6481 20.7024 30.2783 22.5 30.2783C26.7895 30.2783 30.2792 26.7885 30.2792 22.499C30.2792 18.2095 26.7895 14.7197 22.5 14.7197Z" fill="#CE1567"/>
<path d="M22.5 17.5933C19.7943 17.5933 17.5931 19.7945 17.5931 22.5002C17.5931 25.2059 19.7943 27.4071 22.5 27.4071C25.2057 27.4071 27.4069 25.2059 27.4069 22.5002C27.4069 19.7945 25.2057 17.5933 22.5 17.5933ZM22.5 26.689C20.1902 26.689 18.3112 24.8099 18.3112 22.5002C18.3112 20.1905 20.1903 18.3114 22.5 18.3114C24.8097 18.3114 26.6888 20.1905 26.6888 22.5002C26.6888 24.8099 24.8098 26.689 22.5 26.689Z" fill="#CE1567"/>
<path d="M24.1454 20.7041C23.9471 20.7041 23.7864 20.8648 23.7864 21.0631V21.7812C23.7864 21.9795 23.9471 22.1402 24.1454 22.1402C24.3437 22.1402 24.5044 21.9795 24.5044 21.7812V21.0631C24.5045 20.8648 24.3438 20.7041 24.1454 20.7041Z" fill="#CE1567"/>
<path d="M20.8546 20.7041C20.6563 20.7041 20.4956 20.8648 20.4956 21.0631V21.7812C20.4956 21.9795 20.6563 22.1402 20.8546 22.1402C21.0529 22.1402 21.2136 21.9795 21.2136 21.7812V21.0631C21.2136 20.8648 21.0529 20.7041 20.8546 20.7041Z" fill="#CE1567"/>
<path d="M24.2892 22.8886C24.1076 22.8091 23.8959 22.8921 23.8164 23.0738C23.5876 23.5973 23.0708 23.9357 22.5 23.9357C21.9291 23.9357 21.4124 23.5974 21.1836 23.0738C21.1042 22.8921 20.8924 22.8091 20.7108 22.8886C20.5291 22.968 20.4462 23.1796 20.5256 23.3614C20.8687 24.1464 21.6437 24.6538 22.5 24.6538C23.3563 24.6538 24.1312 24.1464 24.4744 23.3614C24.5538 23.1796 24.4709 22.968 24.2892 22.8886Z" fill="#CE1567"/>
</svg>
