<svg width="40" height="40" viewBox="0 0 40 40" fill="none" xmlns="http://www.w3.org/2000/svg">
<circle cx="20" cy="20" r="20" fill="#CE1567" fill-opacity="0.2"/>
<path d="M26.4286 11.4H25.3571V10.7143C25.3571 10.3195 25.0373 10 24.6429 10C24.2484 10 23.9286 10.3195 23.9286 10.7143V11.4H16.0714V10.7143C16.0714 10.3195 15.7516 10 15.3571 10C14.9627 10 14.6429 10.3195 14.6429 10.7143V11.4H13.5714C11.6023 11.4 10 13.0022 10 14.9714V26.4286C10 28.3977 11.6023 30 13.5714 30H26.4286C28.3977 30 30 28.3977 30 26.4286V14.9714C30 13.0022 28.3977 11.4 26.4286 11.4ZM11.4286 14.9714C11.4286 13.7898 12.3898 12.8285 13.5714 12.8285H14.6429V13.5142C14.6429 13.909 14.9627 14.2285 15.3571 14.2285C15.7516 14.2285 16.0714 13.909 16.0714 13.5142V12.8285H23.9286V13.5142C23.9286 13.909 24.2484 14.2285 24.6429 14.2285C25.0373 14.2285 25.3571 13.909 25.3571 13.5142V12.8285H26.4286C27.6102 12.8285 28.5714 13.7898 28.5714 14.9714V15.6927H11.4286V14.9714ZM26.4286 28.5714H13.5714C12.3898 28.5714 11.4286 27.6102 11.4286 26.4286V17.1212H28.5714V26.4286C28.5714 27.6102 27.6102 28.5714 26.4286 28.5714Z" fill="#CE1567"/>
<path d="M20.9936 20.1909H19.7206V18.9179C19.7206 18.5231 19.4008 18.2036 19.0063 18.2036C18.6119 18.2036 18.2921 18.5231 18.2921 18.9179V20.9052C18.2921 21.3 18.6119 21.6195 19.0063 21.6195H20.9936C21.3881 21.6195 21.7079 21.3 21.7079 20.9052C21.7079 20.5104 21.3881 20.1909 20.9936 20.1909Z" fill="#CE1567"/>
<path d="M16.5524 20.1909H15.2793V18.9179C15.2793 18.5231 14.9595 18.2036 14.5651 18.2036C14.1706 18.2036 13.8508 18.5231 13.8508 18.9179V20.9052C13.8508 21.3 14.1706 21.6195 14.5651 21.6195H16.5524C16.9468 21.6195 17.2666 21.3 17.2666 20.9052C17.2666 20.5104 16.9468 20.1909 16.5524 20.1909Z" fill="#CE1567"/>
<path d="M16.5524 26.0608H15.2793V24.787C15.2793 24.3922 14.9595 24.0728 14.5651 24.0728C14.1706 24.0728 13.8508 24.3922 13.8508 24.787V26.775C13.8508 27.1699 14.1706 27.4893 14.5651 27.4893H16.5524C16.9468 27.4893 17.2666 27.1699 17.2666 26.775C17.2666 26.3802 16.9468 26.0608 16.5524 26.0608Z" fill="#CE1567"/>
<path d="M20.9936 26.0608H19.7206V24.787C19.7206 24.3922 19.4008 24.0728 19.0063 24.0728C18.6119 24.0728 18.2921 24.3922 18.2921 24.787V26.775C18.2921 27.1699 18.6119 27.4893 19.0063 27.4893H20.9936C21.3881 27.4893 21.7079 27.1699 21.7079 26.775C21.7079 26.3802 21.3881 26.0608 20.9936 26.0608Z" fill="#CE1567"/>
<path d="M25.4349 20.1909H24.1619V18.9179C24.1619 18.5231 23.8421 18.2036 23.4476 18.2036C23.0532 18.2036 22.7333 18.5231 22.7333 18.9179V20.9052C22.7333 21.3 23.0532 21.6195 23.4476 21.6195H25.4349C25.8294 21.6195 26.1492 21.3 26.1492 20.9052C26.1492 20.5104 25.8294 20.1909 25.4349 20.1909Z" fill="#CE1567"/>
<path d="M25.4349 26.0608H24.1619V24.787C24.1619 24.3922 23.8421 24.0728 23.4476 24.0728C23.0532 24.0728 22.7333 24.3922 22.7333 24.787V26.775C22.7333 27.1699 23.0532 27.4893 23.4476 27.4893H25.4349C25.8294 27.4893 26.1492 27.1699 26.1492 26.775C26.1492 26.3802 25.8294 26.0608 25.4349 26.0608Z" fill="#CE1567"/>
</svg>
