<svg width="40" height="40" viewBox="0 0 40 40" fill="none" xmlns="http://www.w3.org/2000/svg">
<circle cx="20" cy="20" r="20" fill="#CE1567" fill-opacity="0.2"/>
<path d="M28.339 17.1219C28.0729 16.8557 27.9262 16.5016 27.9262 16.1251V14.9132C27.9262 13.3479 26.6521 12.0738 25.0868 12.0738H23.8749C23.4984 12.0738 23.1443 11.9271 22.8781 11.661L22.0218 10.8047C20.9489 9.73178 19.0783 9.73178 18.0054 10.8047L17.1491 11.661C16.883 11.9271 16.5288 12.0738 16.1523 12.0738H14.9405C13.3751 12.0738 12.1011 13.3479 12.1011 14.9132V16.1251C12.1011 16.5016 11.9544 16.8557 11.6883 17.1219L10.8319 17.9782C10.2955 18.5147 10 19.2278 10 19.9864C10 20.7449 10.2955 21.4581 10.8319 21.9946L11.6883 22.8509C11.9544 23.117 12.1011 23.4712 12.1011 23.8477V25.0595C12.1011 26.6249 13.3751 27.8989 14.9405 27.8989H16.1523C16.5288 27.8989 16.883 28.0456 17.1491 28.3117L18.0054 29.1681C18.5419 29.7045 19.2551 30 20.0136 30C20.7722 30 21.4853 29.7045 22.0218 29.1681L22.8781 28.3117C23.1443 28.0456 23.4984 27.8989 23.8749 27.8989H25.0868C26.6521 27.8989 27.9262 26.6249 27.9262 25.0595V23.8477C27.9262 23.4712 28.0729 23.117 28.339 22.8509L29.1953 21.9946C29.7318 21.4581 30.0272 20.7449 30.0272 19.9864C30.0272 19.2278 29.7318 18.5147 29.1953 17.9782L28.339 17.1219ZM28.1839 20.9831L27.3276 21.8395C26.7911 22.3759 26.4956 23.0891 26.4956 23.8477V25.0595C26.4956 25.8363 25.8635 26.4684 25.0868 26.4684H23.8749C23.1163 26.4684 22.4032 26.7639 21.8667 27.3003L21.0104 28.1567C20.4614 28.7057 19.5659 28.7057 19.0169 28.1567L18.1605 27.3003C17.6241 26.7639 16.9109 26.4684 16.1523 26.4684H14.9405C14.1637 26.4684 13.5316 25.8363 13.5316 25.0595V23.8477C13.5316 23.0891 13.2361 22.3759 12.6997 21.8395L11.8433 20.9831C11.2936 20.4334 11.2936 19.5393 11.8433 18.9896L12.6997 18.1333C13.2361 17.5968 13.5316 16.8837 13.5316 16.1251V14.9132C13.5316 14.1365 14.1637 13.5043 14.9405 13.5043H16.1523C16.9109 13.5043 17.6241 13.2089 18.1605 12.6724L19.0169 11.8161C19.5659 11.2671 20.4614 11.2671 21.0104 11.8161L21.8667 12.6724C22.4032 13.2089 23.1163 13.5043 23.8749 13.5043H25.0868C25.8635 13.5043 26.4956 14.1365 26.4956 14.9132V16.1251C26.4956 16.8837 26.7911 17.5968 27.3276 18.1333L28.1839 18.9896C28.7336 19.5393 28.7336 20.4334 28.1839 20.9831Z" fill="#CE1567"/>
<path d="M20.0136 14.5737C17.0289 14.5737 14.601 17.0017 14.601 19.9864C14.601 22.971 17.0289 25.399 20.0136 25.399C22.9983 25.399 25.4262 22.971 25.4262 19.9864C25.4262 17.0017 22.9983 14.5737 20.0136 14.5737ZM20.0136 23.9685C17.8175 23.9685 16.0315 22.1824 16.0315 19.9864C16.0315 17.7903 17.8175 16.0042 20.0136 16.0042C22.2097 16.0042 23.9957 17.7903 23.9957 19.9864C23.9957 22.1824 22.2097 23.9685 20.0136 23.9685Z" fill="#CE1567"/>
<path d="M21.0487 18.4001L19.4611 19.9431L19.0776 19.3592C18.8603 19.0288 18.4168 18.9373 18.0871 19.1538C17.7567 19.3703 17.6652 19.8139 17.8818 20.1443L18.7409 21.4526C18.8583 21.6307 19.0489 21.748 19.2606 21.7711C19.2871 21.7739 19.313 21.7753 19.3388 21.7753C19.5239 21.7753 19.7034 21.7033 19.8375 21.5727L22.0462 19.4255C22.3291 19.1503 22.3354 18.6977 22.0602 18.4141C21.7842 18.1319 21.3323 18.1242 21.0487 18.4001Z" fill="#CE1567"/>
</svg>
