<svg width="40" height="40" viewBox="0 0 40 40" fill="none" xmlns="http://www.w3.org/2000/svg">
<circle cx="20" cy="20" r="20" fill="#CE1567" fill-opacity="0.2"/>
<path d="M27.9183 19.1375C27.7097 19.1495 27.5138 19.2061 27.3306 19.2911C27.6709 18.4901 27.8595 17.6096 27.8595 16.6858C27.8595 12.9994 24.8605 10 21.1741 10C17.4878 10 14.489 12.9994 14.489 16.6858C14.489 17.8313 14.7793 18.9099 15.289 19.8532C15.2853 19.8541 15.2811 19.8543 15.2774 19.8552C14.9563 19.9133 14.63 20.0224 14.2914 20.1819C14.1116 20.263 13.9343 20.363 13.7559 20.4848L10.3798 22.7308C10.1535 22.8504 10 23.0897 10 23.3646C10 23.7605 10.3246 24.0809 10.7201 24.0809C10.8614 24.0809 10.9992 24.0389 11.1167 23.9612L11.1987 23.9067L14.5558 21.6732C14.6618 21.6011 14.7674 21.5389 14.8905 21.4829C15.1301 21.3703 15.3347 21.3011 15.5669 21.2577C15.7747 21.2094 15.9831 21.1863 16.1944 21.1863L21.6263 21.2605C21.8753 21.2661 22.1859 21.6186 22.2286 22.0803C22.2296 22.0936 22.231 22.1503 22.2331 22.1635C22.2331 22.3139 22.2125 22.407 22.1978 22.4517C22.1426 22.6112 22.053 22.7196 21.9443 22.7455L18.139 22.6931C18.1358 22.6931 18.1323 22.6931 18.1288 22.6931C17.7382 22.6931 17.4185 23.0071 17.4129 23.3996C17.4077 23.7948 17.7238 24.12 18.1194 24.1256L21.9345 24.1781C22.0327 24.1653 23.0587 24.1972 23.188 24.1928C23.8032 24.1928 24.3715 23.913 24.7597 23.4219L27.7144 20.8044C27.7553 20.7687 27.7917 20.7282 27.8235 20.6834C27.9015 20.5736 27.975 20.5694 27.9991 20.568C28.1082 20.5652 28.2439 20.6372 28.3656 20.7722C28.5223 20.945 28.6199 21.2178 28.6199 21.4843C28.6199 21.6417 28.5846 21.7921 28.5237 21.897L24.5219 25.9429C24.4967 25.9681 24.4736 25.9954 24.4523 26.0248C24.3663 26.1423 24.2197 26.2822 24.005 26.2822C24.0018 26.2822 23.9987 26.2822 23.9959 26.2822L18.2229 26.2073C17.5556 26.2052 16.9408 26.5277 16.5518 27.1111L15.4541 28.7275L15.3756 28.843C15.1511 29.1235 15.1724 29.5313 15.433 29.7922C15.5718 29.9307 15.7544 30 15.9377 30C16.123 30 16.3091 29.9287 16.4497 29.7881C16.4815 29.7559 16.5106 29.7216 16.5357 29.6838L17.7403 27.9106C17.8623 27.7273 18.0439 27.6371 18.2019 27.6399L23.9731 27.7147C24.5866 27.7245 25.1745 27.4356 25.5746 26.9159L29.5918 22.8539C29.6184 22.8274 29.6429 22.798 29.6649 22.7672C29.9147 22.4189 30.0525 21.9628 30.0525 21.4843C30.0525 20.8583 29.8241 20.2476 29.4296 19.8132C29.0172 19.353 28.4667 19.1116 27.9183 19.1375ZM21.8109 19.8492C21.9114 19.7675 22.0023 19.6732 22.0667 19.5558L22.4906 18.785C22.6728 18.4534 22.9445 18.182 23.2768 18.0008L24.0508 17.5797C24.3788 17.4007 24.5821 17.0579 24.5817 16.6844C24.581 16.3109 24.3771 15.9688 24.0501 15.7918L23.2768 15.3707C22.9445 15.1896 22.6728 14.9182 22.4906 14.5866L22.0663 13.8144C21.8872 13.4891 21.5455 13.2869 21.1741 13.2869C20.8027 13.2869 20.461 13.4891 20.2815 13.8151L19.858 14.5866C19.6754 14.9182 19.4037 15.1896 19.0718 15.3707L18.2995 15.7911C17.9715 15.9688 17.7676 16.3109 17.7669 16.6844C17.7665 17.0579 17.9697 17.4007 18.2985 17.5797L19.0714 18.0008C19.4037 18.182 19.6754 18.4534 19.858 18.785L20.2812 19.5551C20.3358 19.6547 20.4092 19.7378 20.4904 19.8121L16.9271 19.7636C16.2976 18.8975 15.9216 17.8358 15.9216 16.6858C15.9216 13.7892 18.2778 11.4326 21.1741 11.4326C24.0707 11.4326 26.427 13.7892 26.427 16.6858C26.427 18.7355 25.2439 20.5103 23.5269 21.3753C23.2527 20.5502 22.5871 19.9408 21.8109 19.8492ZM19.7566 16.7431L19.6517 16.6858L19.7569 16.6284C20.3298 16.3165 20.7988 15.8485 21.1136 15.2763L21.1741 15.1658L21.235 15.2763C21.549 15.8485 22.018 16.3158 22.5916 16.6284L22.6969 16.6858L22.5916 16.7431C22.018 17.0558 21.549 17.5231 21.235 18.0953L21.1741 18.2058L21.1136 18.0953C20.7988 17.5231 20.3298 17.0551 19.7566 16.7431Z" fill="#CE1567"/>
</svg>
