<svg width="40" height="40" viewBox="0 0 40 40" fill="none" xmlns="http://www.w3.org/2000/svg">
<circle cx="20" cy="20" r="20" fill="#CE1567" fill-opacity="0.2"/>
<path d="M20.8198 10.5015C20.2032 9.88061 19.2717 9.83039 18.6052 10.3836C17.9725 10.9089 17.9697 11.64 17.9683 12.2273C17.9676 12.3808 17.9676 12.5412 17.9556 12.7052L17.9059 13.3824C17.3839 14.5774 16.7743 15.173 16.0075 15.9162C15.599 16.3118 15.1357 16.7603 14.6506 17.3421L14.1279 17.9688C13.8591 17.8451 13.5627 17.7711 13.2474 17.7711H12.1063C10.9449 17.7711 10 18.7087 10 19.8618V27.91C10 29.0624 10.9449 30 12.1063 30H13.2474C13.8633 30 14.4129 29.7317 14.7984 29.3122H21.9833C23.9223 29.3122 25.6891 28.1779 26.4842 26.4227L28.8626 21.1635C29.1312 20.378 29.0011 19.5074 28.5153 18.8343C28.0274 18.159 27.2688 17.7711 26.435 17.7711H21.525L21.5369 17.7425C22.1233 16.3564 22.4776 15.52 22.4776 13.5618C22.4776 13.5576 22.4753 13.5542 22.4752 13.55C22.4753 13.5458 22.4776 13.5423 22.4776 13.5381C22.4776 12.3243 21.5918 11.2779 20.8198 10.5015ZM13.2474 28.5713H12.1063C11.7386 28.5713 11.4398 28.2748 11.4398 27.91V19.8618C11.4398 19.497 11.7386 19.1998 12.1063 19.1998H13.2474C13.6114 19.1998 13.9058 19.4916 13.9117 19.8514V27.9203C13.9058 28.2801 13.6114 28.5713 13.2474 28.5713ZM26.435 19.1998C26.7992 19.1998 27.1303 19.37 27.3447 19.6665C27.5641 19.9707 27.6203 20.3487 27.524 20.641L25.1709 25.8367C24.6078 27.0799 23.3564 27.8835 21.9833 27.8835H15.3537L15.3516 18.7429L15.76 18.2532C16.1959 17.73 16.6114 17.3275 17.0128 16.9382C17.8393 16.1382 18.6196 15.3799 19.2611 13.8757C19.4001 13.4204 19.3912 12.7026 19.4074 12.2322C19.4095 11.7878 19.4215 11.5688 19.529 11.4802C19.593 11.4251 19.676 11.386 19.7948 11.5046C20.1351 11.8464 21.0378 12.7547 21.0378 13.5618C21.0378 15.2319 20.7783 15.8458 20.2096 17.1893L19.9667 17.7711H18.6144C18.2164 17.7711 17.8945 18.0906 17.8945 18.4855C17.8945 18.8803 18.2164 19.1998 18.6144 19.1998H26.435Z" fill="#CE1567"/>
</svg>
